<svg width="48" height="48" viewBox="0 0 48 48" fill="none" xmlns="http://www.w3.org/2000/svg">
<path d="M34.9696 23.9966C34.9738 24.414 34.6696 24.7564 34.2693 24.8118L34.1466 24.8196L24.7262 24.7259L24.8199 34.1463C24.824 34.5637 24.5199 34.9062 24.1196 34.9616L23.9968 34.9694C23.5795 34.9652 23.2309 34.6542 23.1675 34.2528L23.1573 34.1298L23.0555 23.8783C23.0514 23.4609 23.3555 23.1184 23.7558 23.063L23.8785 23.0552L34.1301 23.157C34.5892 23.1616 34.9651 23.5375 34.9696 23.9966Z" fill="#FED13F" stroke="#FED13F"/>
<path d="M13.0304 24.0034C13.0262 23.586 13.3304 23.2436 13.7307 23.1882L13.8534 23.1804L23.2738 23.2741L23.1801 13.8537C23.176 13.4363 23.4801 13.0938 23.8804 13.0384L24.0032 13.0306C24.4205 13.0348 24.7691 13.3458 24.8325 13.7473L24.8427 13.8702L24.9445 24.1217C24.9486 24.5391 24.6445 24.8816 24.2442 24.937L24.1215 24.9448L13.8699 24.843C13.4108 24.8384 13.0349 24.4625 13.0304 24.0034Z" fill="#FED13F" stroke="#FED13F"/>
<circle cx="24" cy="24" r="23.5" stroke="#6680DD" stroke-dasharray="5 10"/>
</svg>
