<svg width="42" height="44" viewBox="0 0 42 44" fill="none" xmlns="http://www.w3.org/2000/svg">
<ellipse cx="21" cy="21.8887" rx="21" ry="21.3066" fill="#FFD483"/>
<path d="M30.5981 21.8798C30.6017 22.2503 30.3356 22.5544 29.9854 22.6036L29.878 22.6105L21.6351 22.5273L21.7171 30.8911C21.7207 31.2616 21.4546 31.5657 21.1043 31.6149L20.9969 31.6218C20.6317 31.6181 20.3267 31.342 20.2713 30.9855L20.2623 30.8764L20.1733 21.7748C20.1696 21.4042 20.4358 21.1001 20.786 21.0509L20.8934 21.044L29.8635 21.1344C30.2652 21.1384 30.5941 21.4722 30.5981 21.8798Z" fill="#2D3134"/>
<path d="M11.4014 21.8858C11.3978 21.5153 11.6639 21.2113 12.0141 21.1621L12.1216 21.1552L20.3644 21.2384L20.2824 12.8757C20.2788 12.5052 20.5449 12.2011 20.8952 12.152L21.0026 12.145C21.3678 12.1487 21.6728 12.4248 21.7282 12.7812L21.7372 12.8903L21.8262 21.9909C21.8299 22.3614 21.5637 22.6654 21.2135 22.7146L21.1061 22.7215L12.136 22.6311C11.7343 22.6271 11.4054 22.2934 11.4014 21.8858Z" fill="#2D3134"/>
</svg>
