<svg width="42" height="43" viewBox="0 0 42 43" fill="none" xmlns="http://www.w3.org/2000/svg">
<path d="M41.5 21.5332C41.5 33.0313 32.315 42.3398 21 42.3398C9.68497 42.3398 0.5 33.0313 0.5 21.5332C0.5 10.0352 9.68497 0.726562 21 0.726562C32.315 0.726562 41.5 10.0352 41.5 21.5332Z" stroke="#2D3134"/>
<path d="M17.2732 29.4039C16.942 29.1074 16.9119 28.6435 17.1829 28.3167L17.2732 28.223L24.7482 21.5322L17.2732 14.8415C16.942 14.545 16.9119 14.0811 17.1829 13.7542L17.2732 13.6606C17.6044 13.3641 18.1226 13.3372 18.4878 13.5797L18.5925 13.6606L26.7268 20.9418C27.058 21.2382 27.0881 21.7021 26.8171 22.029L26.7268 22.1227L18.5925 29.4039C18.2282 29.73 17.6375 29.73 17.2732 29.4039Z" fill="#2D3134"/>
</svg>
