<svg width="26" height="27" viewBox="0 0 26 27" fill="none" xmlns="http://www.w3.org/2000/svg">
<path d="M23.5364 13.8518C23.5364 14.8634 23.0971 15.6994 22.5271 15.8318L22.3687 15.85H1.16699C0.5221 15.85 -0.00069046 14.9554 -0.00069046 13.8518C-0.00069046 12.8401 0.438601 12.0041 1.00855 11.8718L1.16699 11.8535H22.3687C23.0136 11.8535 23.5364 12.7482 23.5364 13.8518Z" fill="#FCFCF2"/>
<path d="M25.4562 12.4348C26.1154 13.1449 26.1753 14.2593 25.6359 15.0429L25.4562 15.2673L15.3703 26.1318C14.6475 26.9104 13.4784 26.9075 12.7589 26.1253C12.1049 25.4142 12.0477 24.304 12.5857 23.523L12.765 23.2994L21.5373 13.8505L12.765 4.40276C12.1079 3.69498 12.046 2.585 12.5806 1.80139L12.7589 1.57682C13.413 0.865764 14.4386 0.798706 15.1627 1.37733L15.3703 1.57029L25.4562 12.4348Z" fill="#FCFCF2"/>
</svg>
