<svg width="52" height="38" viewBox="0 0 52 38" fill="none" xmlns="http://www.w3.org/2000/svg">
<path d="M47.0188 22.2895C50.084 19.9372 52 16.7025 52 13.115C52 5.88126 44.2273 0 34.6482 0C29.1744 0 24.3575 1.88218 21.1279 4.88136C24.9049 5.46964 28.3535 6.82214 31.1449 8.93946C35.1407 11.9388 37.3304 16.0559 37.3304 20.5253C37.3304 22.5248 36.8924 24.407 36.0715 26.1715C37.3304 26.1128 38.5346 25.9364 39.739 25.6423C41.5999 26.8775 44.8844 28.8179 48.4422 29.8181C49.5368 30.1122 50.4127 28.7597 49.756 27.7595C48.4422 25.936 47.5112 23.5832 47.0187 22.2894L47.0188 22.2895Z" fill="#2D3134"/>
<path d="M17.3519 7.41062C7.77276 7.41062 0 13.2918 0 20.5256C0 24.1131 1.91602 27.3478 4.98123 29.7001C4.48868 30.9944 3.55786 33.3467 2.29898 35.2289C1.64225 36.2287 2.46317 37.5812 3.61279 37.2875C7.17055 36.2878 10.4004 34.347 12.316 33.1117C13.9032 33.4645 15.655 33.7 17.4064 33.7C26.9855 33.7 34.7583 27.8188 34.7583 20.585C34.7587 13.2331 26.9855 7.41016 17.3517 7.41016L17.3519 7.41062Z" fill="#2D3134"/>
</svg>
