<svg width="45" height="36" viewBox="0 0 45 36" fill="none" xmlns="http://www.w3.org/2000/svg">
<path d="M42.5246 14.85H41.4683L42.2299 16.8298C42.7628 18.2153 43.1991 20.5648 43.1991 22.0499V32.8076C43.1991 34.5399 41.7815 35.9575 40.0492 35.9575C38.3169 35.9575 36.8993 34.5399 36.8993 32.8076V31.0898C32.3604 31.6882 27.5229 32.013 22.4994 32.013C17.476 32.013 12.6389 31.6878 8.09958 31.0898V32.8076C8.09958 34.5399 6.68199 35.9575 4.94971 35.9575C3.21742 35.9575 1.79983 34.5399 1.79983 32.8076L1.79944 22.0499C1.79944 20.5648 2.23536 18.2153 2.76858 16.8298L3.53016 14.85H2.47508C1.11394 14.85 0 13.736 0 12.3749C0 11.0138 1.11394 9.89981 2.47508 9.89981H5.43511L7.58093 4.32036C8.11415 2.93371 9.71851 1.4663 11.1459 1.05859C11.1459 1.05859 14.8499 0 22.5003 0C30.1507 0 33.8537 1.0586 33.8537 1.05819C35.2819 1.46665 36.8862 2.93411 37.4195 4.31996L39.5653 9.89981L42.5249 9.9002C43.8861 9.9002 45 11.0141 45 12.3753C45 13.7364 43.8861 14.85 42.5249 14.85L42.5246 14.85ZM25.3193 7.28009C25.3193 8.837 24.0571 10.0992 22.5002 10.0992C20.9433 10.0992 19.6811 8.837 19.6811 7.28009C19.6811 5.72319 20.9433 4.46099 22.5002 4.46099C24.0571 4.46099 25.3193 5.72319 25.3193 7.28009ZM13.8042 5.08877C12.2473 5.08877 10.9851 6.35097 10.9851 7.90788C10.9851 9.46478 12.2473 10.727 13.8042 10.727C15.3611 10.727 16.6233 9.46478 16.6233 7.90788C16.6233 6.35097 15.3611 5.08877 13.8042 5.08877ZM10.3498 20.925C10.3498 19.5592 9.2418 18.4499 7.87474 18.4499C6.50778 18.4499 5.39966 19.5592 5.39966 20.925C5.39966 22.2909 6.50767 23.4001 7.87474 23.4001C9.2417 23.4001 10.3498 22.2909 10.3498 20.925ZM30.8658 22.2277C30.8658 22.2277 26.6597 24.1189 22.4998 24.1189C18.3404 24.1189 14.1338 22.2277 14.1338 22.2277C12.6683 21.5689 12.3772 21.9809 13.4864 23.1427C13.4864 23.1427 17.7365 27.5952 22.4998 27.5952C27.2631 27.5952 31.5132 23.1427 31.5132 23.1427C32.6224 21.9809 32.3308 21.5693 30.8658 22.2277H30.8658ZM34.99 13.8354C35.4793 13.7494 35.9682 13.6604 36.4559 13.5642C36.9464 13.463 37.2081 13.0334 37.0386 12.5994C36.2048 10.4446 35.3687 8.00202 34.531 5.34343C34.3615 4.80667 33.8188 4.28755 33.3256 4.2099C26.15 3.11756 18.8504 3.11756 11.6746 4.2099C11.1814 4.28759 10.6391 4.80669 10.4684 5.34383C9.63033 8.00293 8.7946 10.4458 7.9608 12.5998C7.7913 13.033 8.05379 13.4626 8.54425 13.5639C9.03196 13.66 9.52085 13.7491 10.0101 13.835C10.2271 12.7363 11.1908 11.5451 12.1815 11.3921C13.2605 11.2258 14.3493 11.2258 15.4283 11.3921C16.4272 11.5464 17.3999 12.7568 17.6055 13.8625C17.6565 14.167 17.7083 14.4679 17.7597 14.7693C17.9838 14.7838 18.2074 14.7975 18.4315 14.8105C18.5209 14.2886 18.6104 13.7636 18.6999 13.2344C18.9058 12.1287 19.8781 10.9179 20.8771 10.764C21.9561 10.5977 23.0449 10.5977 24.1239 10.764C25.1229 10.9182 26.0956 12.1287 26.3012 13.2344C26.3906 13.7637 26.4801 14.2878 26.5696 14.8105C26.7936 14.7975 27.0172 14.7842 27.2413 14.7693C27.2923 14.4671 27.3441 14.167 27.3955 13.8625C27.6015 12.7568 28.5737 11.546 29.5727 11.3921C30.6517 11.2258 31.7406 11.2258 32.8195 11.3921C33.8099 11.5456 34.7735 12.7368 34.9901 13.8354L34.99 13.8354ZM39.5996 20.925C39.5996 19.5581 38.4915 18.4499 37.1245 18.4499C35.7574 18.4499 34.6494 19.5579 34.6494 20.925C34.6494 22.2921 35.7574 23.4001 37.1245 23.4001C38.4915 23.4001 39.5996 22.2921 39.5996 20.925ZM31.1955 5.08877C29.6386 5.08877 28.3764 6.35097 28.3764 7.90788C28.3764 9.46478 29.6386 10.727 31.1955 10.727C32.7524 10.727 34.0146 9.46478 34.0146 7.90788C34.0154 6.35097 32.7531 5.08877 31.1955 5.08877Z" fill="#2D3134"/>
</svg>
