<svg width="31" height="31" viewBox="0 0 31 31" fill="none" xmlns="http://www.w3.org/2000/svg">
<path d="M0.170898 22.8421C0.170898 24.2779 0.902549 25.5668 2.04692 26.4642V29.3684C2.04692 30.2658 2.89114 31 3.92295 31H5.79898C6.83079 31 7.675 30.2658 7.675 29.3684V27.7368H22.6832V29.3684C22.6832 30.2658 23.5274 31 24.5592 31H26.4353C27.4671 31 28.3113 30.2658 28.3113 29.3684V26.4642C29.4557 25.5668 30.1873 24.2779 30.1873 22.8421V6.52632C30.1873 0.815789 23.4711 0 15.1791 0C6.88707 0 0.170898 0.815789 0.170898 6.52632V22.8421ZM6.73699 24.4737C5.17989 24.4737 3.92295 23.3805 3.92295 22.0263C3.92295 20.6721 5.17989 19.5789 6.73699 19.5789C8.29409 19.5789 9.55103 20.6721 9.55103 22.0263C9.55103 23.3805 8.29409 24.4737 6.73699 24.4737ZM23.6212 24.4737C22.0641 24.4737 20.8072 23.3805 20.8072 22.0263C20.8072 20.6721 22.0641 19.5789 23.6212 19.5789C25.1783 19.5789 26.4353 20.6721 26.4353 22.0263C26.4353 23.3805 25.1783 24.4737 23.6212 24.4737ZM26.4353 14.6842H3.92295V6.52632H26.4353V14.6842Z" fill="#443737"/>
</svg>
