<svg width="45" height="50" viewBox="0 0 45 50" fill="none" xmlns="http://www.w3.org/2000/svg">
<path d="M17.2155 13.4853C17.1893 14.9729 16.9371 16.4482 16.4665 17.8597C16.1594 18.8082 15.825 19.7383 15.5209 20.6839V20.6835C14.9869 22.1934 14.6238 23.7586 14.4375 25.3494C14.3579 26.7553 14.6002 28.1611 15.1462 29.4591C15.5513 30.5182 15.9504 31.5802 16.2973 32.6606C16.6044 33.5813 16.8378 34.5024 17.0369 35.4231L17.0373 35.4235C17.2566 36.3057 17.284 37.2247 17.117 38.1184C16.8532 39.3461 16.0519 40.2056 15.0511 40.8809V40.8813C14.1193 41.471 13.0333 41.7695 11.931 41.7386C10.8287 41.7082 9.76029 41.3498 8.86277 40.7092C7.57246 39.8407 6.66211 38.5123 6.31821 36.9951C5.90068 35.2851 5.49857 33.5726 5.12425 31.8503C4.6729 29.7815 4.23396 27.7062 3.83185 25.628C3.54323 24.1301 3.08587 22.6843 2.6868 21.2202V21.2207C2.43243 20.2983 2.23544 19.3613 2.09755 18.4149C1.86117 16.7781 2.21574 15.1106 3.09833 13.7124C4.71786 10.9473 7.22262 8.80909 10.2075 7.64353C11.1487 7.25855 12.176 7.13436 13.182 7.28467C14.5694 7.49622 15.4902 8.32227 16.1042 9.49476C16.8074 10.7083 17.1876 12.0825 17.209 13.485L17.2155 13.4853Z" fill="#2D3134"/>
<path d="M12.7766 3.62557C12.8104 2.45606 13.0837 1.50756 13.8262 0.752559C14.9833 -0.426375 16.5613 -0.192978 17.3471 1.26215C17.5895 1.72935 17.7278 2.24366 17.7522 2.76953C17.8293 3.62728 17.6315 4.48717 17.1874 5.22497C16.5733 6.21932 15.5113 6.97473 14.2591 6.36367C13.4823 5.98597 13.102 5.28323 12.8995 4.47599H12.8991C12.8426 4.20021 12.8019 3.92143 12.7766 3.64094L12.7766 3.62557Z" fill="#2D3134"/>
<path d="M11.9994 4.10092C11.9942 4.52872 11.8606 4.94453 11.6157 5.29531C11.357 5.70598 10.9194 5.96977 10.4359 6.00746C9.95197 6.04472 9.47878 5.85115 9.16014 5.48545C8.83982 5.12444 8.63856 4.67352 8.58332 4.19436C8.5285 3.71474 8.62272 3.22998 8.8531 2.80604C9.49759 1.69179 10.8363 1.6305 11.5942 2.67714C11.8799 3.09552 12.0229 3.59484 12.0023 4.10098L11.9994 4.10092Z" fill="#2D3134"/>
<path d="M8.07367 6.16864C8.02143 6.46113 7.94434 6.7489 7.84371 7.0281C7.6814 7.44949 7.31184 7.75609 6.86777 7.83831C6.42412 7.9201 5.96934 7.76594 5.66746 7.4302C5.36342 7.15056 5.15059 6.78571 5.0568 6.3836C4.96259 5.98106 4.99128 5.56011 5.13945 5.1743C5.2692 4.68311 5.67089 4.31098 6.17063 4.21977C6.7329 4.12813 7.29562 4.38035 7.60094 4.86127C7.87415 5.2424 8.03559 5.69204 8.06771 6.1597L8.07367 6.16864Z" fill="#2D3134"/>
<path d="M4.96436 8.92333C4.98278 9.38539 4.80163 9.83247 4.46718 10.1515C3.92675 10.6581 3.14091 10.6088 2.5487 10.0534V10.053C2.26178 9.76394 2.06822 9.3948 1.99328 8.99441C1.91834 8.59359 1.96502 8.17991 2.12818 7.80604C2.29262 7.42235 2.6275 7.138 3.03303 7.03822C3.43857 6.93887 3.86766 7.03565 4.19092 7.29987C4.70051 7.68442 4.98958 8.29465 4.96431 8.93277L4.96436 8.92333Z" fill="#2D3134"/>
<path d="M1.17692 10.321C1.71264 10.3647 2.19569 10.6619 2.47656 11.1206C2.75742 11.5792 2.80245 12.1445 2.59818 12.6416C2.3665 13.1457 1.80252 13.406 1.26894 13.2557C0.818013 13.1324 0.436455 12.8318 0.21207 12.422C-0.0127546 12.0121 -0.0611444 11.5287 0.0780278 11.0824C0.230903 10.6139 0.67541 10.3035 1.16745 10.321L1.17692 10.321Z" fill="#2D3134"/>
<path d="M42.8573 25.4464C42.8252 26.7679 42.5892 28.0766 42.1576 29.3262C41.3255 31.8678 40.899 34.4984 40.3496 37.1016C40.1162 38.2004 39.8922 39.3023 39.6374 40.3981C39.2508 42.0619 38.9163 43.744 38.4281 45.3768C37.71 47.768 36.0339 49.1799 33.5904 49.6437C32.5061 49.8295 31.3906 49.672 30.4 49.1932C29.4094 48.7144 28.5933 47.9385 28.0648 46.9732C27.7025 46.2088 27.5707 45.3558 27.6846 44.5178C27.8533 42.9718 28.2237 41.455 28.7864 40.0055C29.1568 38.9495 29.5397 37.8986 29.9346 36.8529C30.5135 35.265 30.6202 33.5431 30.2412 31.8956C29.8361 30.1326 29.3239 28.3961 28.7064 26.6955C28.157 25.2048 27.8169 23.6448 27.6966 22.0608C27.5729 20.1217 28.1553 18.2041 29.3359 16.6612C30.2566 15.4578 31.5306 15.0802 32.9857 15.2185C34.5668 15.3718 35.9448 16.0626 37.2432 16.922C39.3291 18.2624 41.0232 20.1304 42.1542 22.3371C42.6411 23.295 42.8886 24.3566 42.8758 25.4311L42.8573 25.4464Z" fill="#2D3134"/>
<path d="M27.1934 10.7948C27.2028 10.0133 27.4974 9.2622 28.022 8.68271C28.8814 7.76201 30.1032 7.76201 31.0916 8.68271C32.3193 9.82777 32.5587 12.1883 31.5917 13.5603C30.7383 14.788 29.305 14.8925 28.2614 13.8305C27.589 13.1427 27.2118 12.1698 27.1993 10.8072L27.1934 10.7948Z" fill="#2D3134"/>
<path d="M36.4019 11.9136C36.428 12.594 36.127 13.2458 35.5913 13.6663C34.9536 14.1785 34.0239 14.0868 33.498 13.4607C33.1383 13.0231 32.952 12.4689 32.9739 11.9033C32.9962 11.3376 33.2253 10.7993 33.6175 10.3912C33.9404 10.0589 34.3956 9.89013 34.8569 9.9321C35.3181 9.97364 35.7356 10.2216 35.9934 10.6061C36.2666 10.9868 36.41 11.445 36.4019 11.9135V11.9136Z" fill="#2D3134"/>
<path d="M39.9563 13.782C39.9764 14.426 39.7152 15.0465 39.2412 15.4825C38.9324 15.7712 38.5029 15.8928 38.0883 15.8084C37.6738 15.7245 37.3256 15.4453 37.1539 15.059C36.9325 14.5918 36.8897 14.0604 37.0336 13.5636C37.177 13.0673 37.4974 12.6407 37.9333 12.3637C38.6544 11.9248 39.5815 12.3299 39.8578 13.2172H39.8582C39.9062 13.403 39.943 13.5919 39.9687 13.782L39.9563 13.782Z" fill="#2D3134"/>
<path d="M43.005 16.5987C43.0165 17.2183 42.73 17.8063 42.2346 18.1793C41.895 18.4534 41.4428 18.5433 41.0244 18.4212C40.6056 18.2988 40.2733 17.9789 40.135 17.5656C39.9739 17.1447 39.9594 16.6813 40.0943 16.2514C40.2292 15.8215 40.5054 15.4493 40.8779 15.1958C41.7772 14.5817 42.9129 15.2172 43.0049 16.3593V16.5863L43.005 16.5987Z" fill="#2D3134"/>
<path d="M43.8219 18.3125C44.4257 18.3099 44.9263 18.781 44.9606 19.3839C45.0017 19.7916 44.8963 20.201 44.6634 20.5384C44.4309 20.8755 44.0857 21.1191 43.6896 21.2257C43.171 21.3816 42.6156 21.1418 42.3727 20.6579C41.8572 19.6665 42.6952 18.2975 43.8125 18.3129L43.8219 18.3125Z" fill="#2D3134"/>
</svg>
