<svg width="22" height="15" viewBox="0 0 22 15" fill="none" xmlns="http://www.w3.org/2000/svg">
<path d="M7.10807 6.78351C8.92627 6.78351 10.4002 5.30957 10.4002 3.49137C10.4002 1.67316 8.92627 0.199219 7.10807 0.199219C5.28986 0.199219 3.81592 1.67316 3.81592 3.49137C3.81592 5.30957 5.28986 6.78351 7.10807 6.78351Z" fill="#002CC7"/>
<path d="M10.2001 3.49152C10.193 4.77023 9.38532 5.9571 8.1749 6.39511C6.94093 6.84254 5.54919 6.45869 4.7132 5.4508C3.88898 4.45703 3.79479 2.99935 4.45887 1.89726C5.12531 0.792809 6.45111 0.20173 7.71805 0.460768C8.98027 0.719807 9.96462 1.75125 10.1648 3.02525C10.1907 3.17832 10.2001 3.3361 10.2001 3.49152C10.2025 3.74821 10.6028 3.75056 10.6004 3.49152C10.5934 2.03149 9.66791 0.712742 8.29735 0.206439C6.93622 -0.295154 5.34196 0.140502 4.42119 1.26143C3.49101 2.39414 3.35442 4.02844 4.1127 5.29066C4.87333 6.55054 6.36869 7.20049 7.80754 6.91319C9.20635 6.63531 10.3367 5.46022 10.5533 4.04963C10.5816 3.8636 10.5981 3.67756 10.5981 3.49152C10.6028 3.23484 10.2025 3.23484 10.2001 3.49152Z" fill="#002CC7"/>
<path d="M13.1534 14.821H1.07748C0.58295 14.821 0.182617 14.4207 0.182617 13.9262V13.328C0.182617 10.309 2.62936 7.8623 5.64834 7.8623H8.58254C11.6015 7.8623 14.0483 10.309 14.0483 13.328V13.9262C14.0483 14.4207 13.6479 14.821 13.1534 14.821Z" fill="#002CC7"/>
<path d="M13.1533 14.6366C12.6988 14.6366 12.2443 14.6366 11.7898 14.6366C10.7254 14.6366 9.66097 14.6366 8.5942 14.6366C7.35552 14.6366 6.1192 14.6366 4.88053 14.6366C3.90795 14.6366 2.93303 14.6366 1.96045 14.6366C1.70848 14.6366 1.4565 14.6366 1.20689 14.6366C1.1645 14.6366 1.12211 14.6366 1.07972 14.6366C0.75239 14.6319 0.467447 14.4176 0.385026 14.0973C0.356767 13.9843 0.363832 13.8642 0.363832 13.7465C0.363832 13.6146 0.363832 13.4827 0.363832 13.3508C0.363832 12.9599 0.40151 12.5737 0.483932 12.1922C0.662904 11.3821 1.03027 10.6145 1.55777 9.97627C2.57037 8.74937 4.08222 8.0429 5.67177 8.04055C6.6208 8.04055 7.57218 8.04055 8.5212 8.04055C10.0613 8.04055 11.5284 8.67637 12.5504 9.83498C13.1015 10.459 13.4995 11.215 13.7043 12.0227C13.8621 12.6467 13.8762 13.2826 13.8668 13.9231C13.8598 14.3187 13.5466 14.6296 13.1533 14.6366C12.9201 14.6413 12.9178 15.004 13.1533 14.9993C13.6266 14.9899 14.0529 14.6837 14.1871 14.2245C14.2648 13.9584 14.2295 13.6499 14.2295 13.3744C14.2295 12.5337 14.0576 11.7095 13.7067 10.9465C12.9767 9.364 11.4978 8.17478 9.7952 7.80741C9.24886 7.68967 8.70017 7.67554 8.14677 7.67554C7.54392 7.67554 6.94342 7.67554 6.34056 7.67554C5.84132 7.67554 5.34444 7.66377 4.84756 7.73441C3.99037 7.85451 3.16145 8.17713 2.45027 8.66931C0.99259 9.67956 0.0741793 11.3374 0.00588725 13.1106C-0.00353234 13.3767 0.00117744 13.6429 0.00117744 13.9066C0.00353234 14.3234 0.231957 14.719 0.615806 14.8957C0.856005 15.0063 1.09621 14.9993 1.35053 14.9993C2.14884 14.9993 2.94715 14.9993 3.74547 14.9993C4.97943 14.9993 6.21104 14.9993 7.44501 14.9993C8.64365 14.9993 9.8423 14.9993 11.0409 14.9993C11.7144 14.9993 12.3856 14.9993 13.0591 14.9993C13.0897 14.9993 13.1227 14.9993 13.1533 14.9993C13.3888 15.0016 13.3888 14.6366 13.1533 14.6366Z" fill="#002CC7"/>
<path d="M16.2101 7.10613C17.5705 7.10613 18.6733 6.00331 18.6733 4.64291C18.6733 3.28251 17.5705 2.17969 16.2101 2.17969C14.8496 2.17969 13.7468 3.28251 13.7468 4.64291C13.7468 6.00331 14.8496 7.10613 16.2101 7.10613Z" fill="#002CC7"/>
<path d="M18.5225 4.64256C18.5155 5.60571 17.9056 6.49822 16.9895 6.82084C16.0711 7.14346 15.0396 6.85616 14.4179 6.1073C13.801 5.36315 13.7303 4.27284 14.2272 3.44862C14.7241 2.62676 15.7108 2.18404 16.6527 2.37243C17.7336 2.58437 18.5155 3.54517 18.5225 4.64256C18.5249 4.83566 18.824 4.83566 18.8216 4.64256C18.8145 3.55459 18.1316 2.5726 17.112 2.19111C16.0899 1.80726 14.8866 2.13223 14.1942 2.97764C13.4995 3.82541 13.3983 5.04524 13.9658 5.98956C14.531 6.92681 15.6425 7.41427 16.7163 7.20704C17.7713 7.00452 18.6262 6.11908 18.7863 5.05702C18.8075 4.92043 18.8193 4.78149 18.8193 4.64256C18.824 4.44945 18.5249 4.44945 18.5225 4.64256Z" fill="#002CC7"/>
<path d="M21.6404 13.3161V13.8836C21.6404 14.3523 21.2943 14.7314 20.8774 14.7314H15.3293V12.4684C15.3293 10.6574 14.3308 9.1032 12.9155 8.45796C13.4148 8.25073 13.954 8.1377 14.5169 8.1377H17.0036C19.561 8.1377 21.6404 10.4596 21.6404 13.3161Z" fill="#002CC7"/>
<path d="M21.4708 13.3161C21.4708 13.4291 21.4708 13.5422 21.4708 13.6576C21.4708 13.7824 21.4825 13.9166 21.4566 14.039C21.393 14.3311 21.1693 14.5642 20.8608 14.5689C20.5429 14.5736 20.2274 14.5689 19.9095 14.5689C18.699 14.5689 17.491 14.5689 16.2806 14.5689C15.9603 14.5689 15.6424 14.5689 15.3221 14.5689C15.3763 14.6231 15.4304 14.6772 15.4846 14.7314C15.4846 14.0579 15.4846 13.3844 15.4846 12.7132C15.4846 12.2917 15.4658 11.8749 15.381 11.4581C15.2491 10.8128 14.983 10.1888 14.5945 9.65658C14.18 9.0867 13.636 8.61572 12.9931 8.32135C12.979 8.42026 12.9672 8.51917 12.9531 8.61807C13.4523 8.4132 13.9798 8.30487 14.5215 8.30487C14.6934 8.30487 14.8653 8.30487 15.0372 8.30487C15.6283 8.30487 16.2193 8.30487 16.8104 8.30487C17.4604 8.30487 18.0915 8.39671 18.6873 8.67459C19.4667 9.03489 20.1261 9.62597 20.5971 10.3442C21.1788 11.2249 21.4684 12.2658 21.4708 13.3161C21.4708 13.5257 21.7981 13.5257 21.7957 13.3161C21.791 11.4275 20.8679 9.52942 19.2006 8.57097C18.5177 8.17771 17.7477 7.97989 16.9588 7.97754C16.403 7.97754 15.8449 7.97754 15.2891 7.97754C15.0419 7.97754 14.7923 7.97754 14.545 7.97754C13.9704 7.97754 13.4029 8.08586 12.8683 8.30251C12.7553 8.34961 12.687 8.53565 12.8283 8.59923C13.961 9.12202 14.7452 10.1864 15.0325 11.3874C15.2209 12.1716 15.1573 13.0076 15.1573 13.8083C15.1573 14.1144 15.1573 14.4229 15.1573 14.729C15.1573 14.8162 15.2326 14.8915 15.3198 14.8915C16.1981 14.8915 17.0765 14.8915 17.9549 14.8915C18.9204 14.8915 19.8883 14.8986 20.8538 14.8915C21.2612 14.8892 21.5932 14.6231 21.7298 14.2463C21.8334 13.959 21.7934 13.6152 21.7934 13.3137C21.7981 13.1065 21.4708 13.1065 21.4708 13.3161Z" fill="#002CC7"/>
</svg>
