<svg width="126" height="126" viewBox="0 0 126 126" fill="none" xmlns="http://www.w3.org/2000/svg">
<g clip-path="url(#clip0_3958_3492)">
<path d="M126.017 63C126.026 97.7939 97.8272 126 63.0333 126C28.2394 126 0.0258394 97.7939 0.016646 63C0.00745268 28.2061 28.2061 0 63 0C97.7939 0 126.007 28.2061 126.017 63Z" fill="#FBF8EE"/>
<path d="M62.5136 97.015C81.3004 97.015 96.5055 81.666 96.5005 62.7575C96.4955 43.849 81.2823 28.5 62.4955 28.5C43.7088 28.5 28.5037 43.849 28.5087 62.7575C28.5137 81.666 43.7269 97.015 62.5136 97.015Z" fill="#FBF8EE" stroke="#FFD483" stroke-width="3" stroke-linecap="round"/>
<path d="M55.4434 79.7389C55.5944 81.2208 56.5198 81.4818 57.5005 80.3155L62.9142 73.8814L54.6096 71.5547L55.4434 79.7389Z" fill="#F76E4D"/>
<path d="M79.2027 45.4858L55.4993 70.3947L72.2243 75.0777C73.7139 75.496 75.1065 74.628 75.3219 73.1503L79.2274 46.3045C79.2724 45.9877 79.2573 45.7185 79.2027 45.4858Z" fill="#F76E4D"/>
<path d="M77.1559 44.9745L41.7005 64.4893C40.3478 65.2334 40.4587 66.1853 41.9479 66.5991L54.0011 69.977L78.086 44.6596C77.8121 44.6844 77.4981 44.7859 77.1559 44.9745Z" fill="#F76E4D"/>
<path d="M100.591 26.2583C100.591 27.3955 99.6683 28.3173 98.5297 28.3173C97.3912 28.3173 96.4683 27.3955 96.4683 26.2583C96.4683 25.1211 97.3912 24.1992 98.5297 24.1992C99.6683 24.1992 100.591 25.1211 100.591 26.2583Z" fill="#2D3134"/>
<path d="M23.073 77.2495L24.0251 79.9144L18.0726 86.8856L18.0944 86.9465C19.3865 86.3893 20.3147 86.0102 20.879 85.8091L25.5379 84.1484L26.2073 86.022L16.3071 89.5508L15.3623 86.9062L21.2427 79.9683L21.2258 79.9209C19.9633 80.4472 19.0658 80.8052 18.5331 80.9951L13.8471 82.6654L13.1729 80.7783L23.073 77.2495Z" fill="#2D3134"/>
<path d="M15.2365 61.2922C16.976 61.3351 18.3022 61.7989 19.2153 62.6834C20.1284 63.568 20.5651 64.8143 20.5253 66.4225C20.4855 68.0307 19.9878 69.254 19.0321 70.0924C18.0764 70.9309 16.724 71.3285 14.975 71.2854C13.226 71.2422 11.9021 70.7785 11.0034 69.8943C10.1 69.0052 9.66827 67.7542 9.70817 66.1412C9.74806 64.5283 10.2433 63.3073 11.194 62.4783C12.1448 61.6445 13.4923 61.2492 15.2365 61.2922ZM15.0471 68.9525C16.2211 68.9814 17.1107 68.7807 17.7159 68.3502C18.3211 67.9198 18.6346 67.2618 18.6565 66.3764C18.7004 64.6007 17.5412 63.6837 15.1788 63.6254C12.8117 63.567 11.6063 64.4209 11.5626 66.187C11.5407 67.0724 11.8237 67.7475 12.4115 68.2122C12.9946 68.6767 13.8731 68.9235 15.0471 68.9525Z" fill="#2D3134"/>
<path d="M20.1299 39.7964L20.5409 39.1898C20.925 38.6228 21.1013 38.1234 21.0697 37.6916C21.0342 37.2571 20.8021 36.895 20.3733 36.6052C19.9406 36.3127 19.5405 36.2157 19.1729 36.3141C18.8079 36.4085 18.4549 36.7075 18.1137 37.211L17.5456 38.0496L20.1299 39.7964ZM21.5691 34.6993C22.5059 35.3326 23.0237 36.1103 23.1223 37.0326C23.2236 37.9508 22.909 38.9492 22.1783 40.0277L21.6423 40.8187L24.7387 42.9116L23.4896 44.7554L14.7839 38.8711L16.6657 36.0936C17.3803 35.0389 18.1512 34.3922 18.9785 34.1536C19.8044 33.9083 20.668 34.0903 21.5691 34.6993Z" fill="#2D3134"/>
<path d="M31.1312 33.0101L24.6675 24.7305L26.4252 23.3615L31.7571 30.1914L35.1193 27.5727L36.2511 29.0225L31.1312 33.0101Z" fill="#2D3134"/>
<path d="M47.6147 22.2138L46.064 20.1099L42.4499 21.3826L42.563 23.9927L40.2982 24.7902L40.2877 13.6156L42.8577 12.7106L49.8795 21.4162L47.6147 22.2138ZM44.9407 18.5257C43.5223 16.624 42.7208 15.5483 42.5361 15.2986C42.3559 15.0473 42.2191 14.8467 42.1255 14.6969C42.1804 15.3274 42.2576 16.9069 42.3572 19.4354L44.9407 18.5257Z" fill="#2D3134"/>
<path d="M65.016 18.5519L62.1949 18.8087L56.9191 11.3134L56.8546 11.3193C57.0728 12.708 57.2091 13.7004 57.2635 14.2963L57.7127 19.2168L55.7293 19.3973L54.7749 8.94141L57.5745 8.68655L62.8361 16.1039L62.8862 16.0993C62.6906 14.747 62.5671 13.7895 62.5157 13.2269L62.064 8.27786L64.0617 8.09601L65.016 18.5519Z" fill="#2D3134"/>
<path d="M77.4202 21.1761L71.739 19.0874L75.3699 9.23438L81.0511 11.323L80.4203 13.0349L76.8307 11.7152L76.0335 13.8785L79.3735 15.1064L78.7427 16.8182L75.4027 15.5903L74.4664 18.1311L78.056 19.4508L77.4202 21.1761Z" fill="#2D3134"/>
<path d="M106.766 54.7837L106.281 51.996L113.332 46.1356L113.321 46.0719C111.953 46.4018 110.974 46.6181 110.383 46.7206L105.51 47.5669L105.169 45.607L115.525 43.8086L116.006 46.575L109.032 52.4148L109.041 52.4644C110.374 52.1599 111.32 51.9593 111.877 51.8625L116.779 51.0112L117.122 52.9853L106.766 54.7837Z" fill="#2D3134"/>
<path d="M111.788 71.9382C110.081 71.5991 108.854 70.9158 108.106 69.8885C107.357 68.8611 107.14 67.5586 107.454 65.9808C107.769 64.4031 108.468 63.2827 109.553 62.6197C110.639 61.9566 112.039 61.7956 113.755 62.1366C115.471 62.4775 116.696 63.1603 117.43 64.1849C118.168 65.2151 118.38 66.5214 118.064 68.1038C117.749 69.6862 117.052 70.8047 115.974 71.4593C114.895 72.1186 113.499 72.2782 111.788 71.9382ZM113.285 64.4229C112.133 64.194 111.222 64.24 110.552 64.5608C109.882 64.8817 109.461 65.4765 109.288 66.3452C108.941 68.0872 109.926 69.1885 112.244 69.6491C114.566 70.1106 115.9 69.475 116.245 67.7423C116.418 66.8736 116.255 66.1602 115.755 65.602C115.26 65.0448 114.437 64.6517 113.285 64.4229Z" fill="#2D3134"/>
<path d="M103.613 91.9921L103.105 92.5213C102.631 93.0158 102.374 93.4785 102.332 93.9095C102.294 94.3437 102.462 94.7396 102.836 95.0972C103.214 95.4581 103.592 95.6209 103.971 95.5855C104.346 95.5537 104.745 95.3181 105.165 94.8789L105.867 94.1475L103.613 91.9921ZM101.337 96.7755C100.52 95.9942 100.14 95.1406 100.198 94.215C100.252 93.2927 100.73 92.3613 101.632 91.4206L102.293 90.7307L99.5927 88.1483L101.134 86.5402L108.727 93.8008L106.405 96.2233C105.523 97.1432 104.655 97.6514 103.799 97.7479C102.944 97.8512 102.123 97.5271 101.337 96.7755Z" fill="#2D3134"/>
<path d="M86.085 99.9649L87.9113 101.835L91.3153 100.077L90.8428 97.5072L92.9759 96.4054L94.5291 107.472L92.1087 108.722L83.952 101.067L86.085 99.9649ZM89.2427 103.249C90.91 104.938 91.8524 105.893 92.0698 106.115C92.283 106.339 92.4462 106.518 92.5596 106.654C92.4182 106.037 92.1237 104.483 91.6759 101.993L89.2427 103.249Z" fill="#2D3134"/>
<path d="M78.0052 104.075L79.9224 114.398L77.7309 114.804L75.8137 104.481L78.0052 104.075Z" fill="#2D3134"/>
<path d="M58.7724 105.611L61.5824 105.97L65.1095 114.428L65.1736 114.436C65.2615 113.033 65.3434 112.035 65.4194 111.441L66.0469 106.54L68.0224 106.793L66.689 117.207L63.9004 116.851L60.3704 108.472L60.3205 108.466C60.2185 109.828 60.1317 110.79 60.0599 111.35L59.4288 116.28L57.439 116.026L58.7724 105.611Z" fill="#2D3134"/>
<path d="M38.7453 105.68C38.7453 106.817 37.8223 107.739 36.6838 107.739C35.5453 107.739 34.6223 106.817 34.6223 105.68C34.6223 104.543 35.5453 103.621 36.6838 103.621C37.8223 103.621 38.7453 104.543 38.7453 105.68Z" fill="#2D3134"/>
</g>
<defs>
<clipPath id="clip0_3958_3492">
<rect width="126" height="126" fill="white"/>
</clipPath>
</defs>
</svg>
