<svg width="15" height="15" viewBox="0 0 15 15" fill="none" xmlns="http://www.w3.org/2000/svg">
<path d="M7.5 0C3.35834 0 0 3.35834 0 7.5C0 11.6417 3.35834 15 7.5 15C11.6422 15 15 11.6419 15 7.5C15 3.35809 11.6422 0 7.5 0Z" fill="#FC4E40"/>
<path fill-rule="evenodd" clip-rule="evenodd" d="M8.05346 3.39652C8.01621 3.09207 7.78087 2.85742 7.49609 2.85742C7.18543 2.85742 6.93359 3.13668 6.93359 3.48115V7.15617L6.93873 7.2408C6.94479 7.29038 6.95611 7.3381 6.97204 7.38326C6.91363 7.62018 7.01521 7.8767 7.23714 8.00483L10.1074 9.66195L10.176 9.69567C10.4324 9.80069 10.7334 9.70269 10.8758 9.45607C11.0311 9.18703 10.9389 8.84301 10.6699 8.68768L8.0582 7.17983C8.05846 7.17198 8.05859 7.16409 8.05859 7.15617V3.48115L8.05346 3.39652Z" fill="#FCFCF2"/>
</svg>
