<svg width="41" height="42" viewBox="0 0 41 42" fill="none" xmlns="http://www.w3.org/2000/svg">
<path d="M20.9085 1.09718C15.6049 1.00461 10.4822 3.02284 6.66645 6.70744C2.85066 10.392 0.655148 15.4414 0.562572 20.745C0.469996 26.0487 2.48823 31.1713 6.17283 34.9871C9.85743 38.8029 14.9068 40.9984 20.2104 41.091C25.5141 41.1836 30.6367 39.1654 34.4525 35.4808C38.2683 31.7961 40.4638 26.7468 40.5564 21.4431C40.6177 17.933 39.7537 14.4683 38.0517 11.3979C36.3496 8.32743 33.8693 5.75901 30.8602 3.95086C27.851 2.1427 24.4186 1.15836 20.9084 1.09709L20.9085 1.09718ZM20.2453 39.0915C15.472 39.0082 10.9272 37.0319 7.61158 33.5977C4.2952 30.1639 2.47878 25.5532 2.56209 20.7799C2.64541 16.0067 4.62164 11.4618 8.05584 8.1462C11.4897 4.82981 16.1004 3.01339 20.8736 3.09671C25.6468 3.18002 30.1918 5.15626 33.5074 8.59045C36.8238 12.0243 38.6402 16.635 38.5569 21.4082C38.4736 26.1815 36.4973 30.7264 33.0631 34.042C29.6293 37.3584 25.0185 39.1748 20.2453 39.0915Z" fill="white"/>
<path d="M34.1052 20.3315C33.5532 20.3219 33.0976 20.7615 33.088 21.3138C33.0099 25.7897 30.55 29.8838 26.6345 32.0547C22.7191 34.2247 17.9437 34.1413 14.1061 31.836C10.2687 29.5303 7.95325 25.3528 8.03139 20.8765C8.04103 20.3241 7.60108 19.8689 7.04908 19.8593C6.4967 19.8496 6.04151 20.2892 6.03187 20.8416C5.94127 26.032 8.62643 30.8759 13.0761 33.5495C17.5258 36.2231 23.0632 36.3198 27.6034 33.8031C32.1437 31.2864 34.9962 26.5388 35.0868 21.3487C35.0914 21.0837 34.9905 20.8273 34.8066 20.6368C34.6222 20.4459 34.3698 20.3361 34.1045 20.3315L34.1052 20.3315Z" fill="white"/>
<path d="M17.4149 15.8919C17.3767 18.0843 16.1613 19.8407 14.7009 19.8152C13.2402 19.7897 12.0873 17.992 12.1255 15.7996C12.1638 13.6075 13.3788 11.8507 14.8395 11.8762C16.2999 11.9017 17.4532 13.6998 17.4149 15.8919Z" fill="white"/>
<path d="M29.1732 16.0989C29.135 18.2914 27.92 20.0478 26.4592 20.0223C24.9988 19.9968 23.8456 18.199 23.8838 16.0066C23.9221 13.8145 25.1374 12.0578 26.5978 12.0833C28.0586 12.1088 29.2115 13.9068 29.1732 16.0989Z" fill="white"/>
</svg>
