<svg width="33" height="31" viewBox="0 0 33 31" fill="none" xmlns="http://www.w3.org/2000/svg">
<path fill-rule="evenodd" clip-rule="evenodd" d="M24.8309 11.1817H8.517V18.5674H24.8309V11.1817ZM16.6576 0.841797C19.692 0.841797 23.1832 0.974739 26.1197 2.0235C30.4755 3.55972 32.9715 6.82417 32.9715 10.9749V30.3844H0.34375V10.9749C0.34375 6.82417 2.83977 3.55972 7.19558 2.0235C10.1321 0.974739 13.6232 0.841797 16.6576 0.841797ZM22.1554 25.2144C24.5209 25.2144 26.446 23.4862 26.446 21.3444V11.1817C26.446 7.31163 22.0738 6.75032 16.6576 6.75032C11.7635 6.75032 6.8693 7.29686 6.8693 11.1817V21.3444C6.8693 23.4714 8.79434 25.2144 11.1435 25.2144L9.31638 26.8688V27.4301H12.0408L14.4879 25.2144H19.1047L21.5518 27.4301H23.9989V26.8688L22.1554 25.2144ZM10.9474 22.9988C11.8484 22.9988 12.5788 22.3375 12.5788 21.5217C12.5788 20.7059 11.8484 20.0446 10.9474 20.0446C10.0464 20.0446 9.31601 20.7059 9.31601 21.5217C9.31601 22.3375 10.0464 22.9988 10.9474 22.9988ZM22.3666 22.9988C23.2676 22.9988 23.998 22.3375 23.998 21.5217C23.998 20.7059 23.2676 20.0446 22.3666 20.0446C21.4656 20.0446 20.7352 20.7059 20.7352 21.5217C20.7352 22.3375 21.4656 22.9988 22.3666 22.9988Z" fill="#FCFCF2"/>
</svg>
