<svg width="22" height="46" viewBox="0 0 22 46" fill="none" xmlns="http://www.w3.org/2000/svg">
<path d="M9.63508 45.3851C15.9361 46.4938 21.289 41.6189 21.1827 35.5265C21.127 32.3399 19.483 29.4618 17.0149 27.7238L16.6403 6.25987C16.5846 3.07325 14.0083 0.492764 10.7275 0.55003C7.54093 0.605653 4.96208 3.27579 5.01771 6.46274L5.39236 27.9267C2.52448 30.1333 0.901165 33.8181 1.81654 37.9274C2.63222 41.6635 5.77903 44.7026 9.63516 45.3851L9.63508 45.3851ZM6.64208 29.6861L7.47402 29.0153L7.08137 6.52033C7.04538 4.45821 8.70469 2.83545 10.673 2.80109C12.7351 2.7651 14.4517 4.42277 14.486 6.39108L14.8787 28.886L15.7335 29.5274C17.7264 30.899 18.8921 33.2226 18.9346 35.6596C18.9706 37.7218 18.1616 39.7047 16.7801 41.1353C15.3048 42.5675 13.4452 43.4436 11.383 43.4796C7.53999 43.5467 4.49322 40.8809 3.77822 37.518C3.25578 34.433 4.32829 31.4141 6.64208 29.6861Z" fill="white"/>
<path d="M11.4387 41.2304C12.9385 41.2042 14.3343 40.6174 15.3474 39.5684C16.3604 38.5194 16.8981 37.1035 16.872 35.604C16.8065 31.8548 13.5986 30.6921 12.7418 29.9569L12.4657 14.1168L9.37252 14.1707L9.64901 30.0109C9.00602 30.7723 4.90802 32.3438 5.9254 36.9204C6.43671 39.3489 8.62695 41.2796 11.4386 41.2305L11.4387 41.2304Z" fill="white"/>
</svg>
