<svg width="26" height="29" viewBox="0 0 26 29" fill="none" xmlns="http://www.w3.org/2000/svg">
<path d="M13.0725 0.569336C6.60852 0.569336 0.144531 1.30863 0.144531 6.48373V20.5304C0.144531 23.3841 2.68165 25.7055 5.80052 25.7055L3.37653 27.9234V28.6627H6.9802L10.2122 25.7055H16.3045L19.5365 28.6627H22.7685V27.9234L20.3445 25.7055C23.4634 25.7055 26.0005 23.3841 26.0005 20.5304V6.48373C26.0005 1.30863 20.2152 0.569336 13.0725 0.569336ZM5.80052 22.7483C4.45924 22.7483 3.37653 21.7576 3.37653 20.5304C3.37653 19.3032 4.45924 18.3125 5.80052 18.3125C7.1418 18.3125 8.22452 19.3032 8.22452 20.5304C8.22452 21.7576 7.1418 22.7483 5.80052 22.7483ZM11.4565 12.3981H3.37653V6.48373H11.4565V12.3981ZM14.6885 12.3981V6.48373H22.7685V12.3981H14.6885ZM20.3445 22.7483C19.0032 22.7483 17.9205 21.7576 17.9205 20.5304C17.9205 19.3032 19.0032 18.3125 20.3445 18.3125C21.6858 18.3125 22.7685 19.3032 22.7685 20.5304C22.7685 21.7576 21.6858 22.7483 20.3445 22.7483Z" fill="#443737"/>
</svg>
