<svg width="156" height="156" viewBox="0 0 156 156" fill="none" xmlns="http://www.w3.org/2000/svg">
<path d="M145.065 89.1678C139.063 126.041 104.306 151.067 67.4326 145.065C30.5596 139.063 5.53381 104.305 11.5359 67.4324C17.5379 30.5594 52.295 5.5336 89.168 11.5357C126.041 17.5377 151.067 52.2948 145.065 89.1678Z" fill="#FCFCF2"/>
<path fill-rule="evenodd" clip-rule="evenodd" d="M69.7998 81.3294C72.4787 77.5235 74.7229 71.8934 75.7896 65.3401C76.8564 58.7868 76.5136 52.7356 75.18 48.2766C73.805 43.6789 71.6102 41.4048 69.4439 41.0522C67.2775 40.6995 64.4748 42.1602 61.7126 46.0844C59.0337 49.8903 56.7895 55.5204 55.7228 62.0737C54.6561 68.627 54.9989 74.6782 56.3324 79.1372C57.7074 83.7349 59.9022 86.009 62.0686 86.3617C64.2349 86.7143 67.0376 85.2536 69.7998 81.3294ZM61.7633 88.2371C68.3403 89.3077 75.4598 79.193 77.665 65.6454C79.8703 52.0978 76.3262 40.2474 69.7492 39.1768C63.1721 38.1062 56.0526 48.2208 53.8474 61.7684C51.6422 75.3161 55.1862 87.1665 61.7633 88.2371Z" fill="#002CC7"/>
<path d="M64.7209 53.3435L66.1421 60.4691L72.5329 64.0605L65.333 65.4396L61.7253 71.7466L60.3041 64.621L53.9133 61.0296L61.1132 59.6505L64.7209 53.3435Z" fill="#002CC7"/>
<path d="M90.9763 57.617L92.3975 64.7425L98.7882 68.3339L91.5884 69.713L87.9807 76.02L86.5595 68.8944L80.1687 65.3031L87.3685 63.9239L90.9763 57.617Z" fill="#002CC7"/>
<path fill-rule="evenodd" clip-rule="evenodd" d="M96.0554 85.6028C98.7343 81.7969 100.979 76.1669 102.045 69.6136C103.112 63.0602 102.769 57.0091 101.436 52.5501C100.061 47.9524 97.8658 45.6782 95.6995 45.3256C93.5332 44.973 90.7304 46.4336 87.9682 50.3579C85.2894 54.1638 83.0451 59.7938 81.9784 66.3471C80.9117 72.9005 81.2545 78.9516 82.588 83.4106C83.963 88.0083 86.1578 90.2825 88.3242 90.6351C90.4905 90.9877 93.2933 89.5271 96.0554 85.6028ZM88.0189 92.5105C94.596 93.5811 101.715 83.4665 103.921 69.9188C106.126 56.3712 102.582 44.5208 96.0048 43.4502C89.4277 42.3796 82.3082 52.4942 80.103 66.0419C77.8978 79.5895 81.4418 91.4399 88.0189 92.5105Z" fill="#002CC7"/>
<path fill-rule="evenodd" clip-rule="evenodd" d="M68.837 136.437C100.945 141.663 131.212 119.871 136.438 87.7627C141.665 55.6542 119.872 25.3882 87.7639 20.1617C55.6554 14.9352 25.3894 36.7273 20.1628 68.8358C14.9363 100.944 36.7285 131.21 68.837 136.437ZM68.5317 138.312C101.676 143.707 132.918 121.212 138.313 88.068C143.709 54.9237 121.213 23.6814 88.0691 18.2863C54.9249 12.8912 23.6826 35.3863 18.2874 68.5306C12.8923 101.675 35.3875 132.917 68.5317 138.312Z" fill="#002CC7"/>
<path d="M40.0742 85.7051L41.529 90.5176C41.8412 91.5812 41.8888 92.4283 41.6719 93.0589C41.4634 93.687 40.9857 94.1139 40.2388 94.3397C39.7211 94.4962 39.2394 94.4658 38.7939 94.2485C38.3595 94.037 38.0049 93.6301 37.7302 93.0277L37.7174 93.0315C37.8566 93.7676 37.8047 94.3622 37.5619 94.8154C37.3191 95.2686 36.9176 95.5799 36.3574 95.7492C35.619 95.9724 34.9873 95.8901 34.4625 95.5022C33.9462 95.1117 33.534 94.4072 33.2261 93.3887L31.6713 88.2451L40.0742 85.7051ZM38.0657 90.8281C38.2248 91.3543 38.508 91.5559 38.9154 91.4327C39.3228 91.3096 39.447 90.9849 39.2879 90.4586L38.8954 89.16L37.6731 89.5295L38.0657 90.8281ZM34.9227 92.0144C35.0818 92.5406 35.3693 92.7409 35.7852 92.6152C36.1841 92.4946 36.3041 92.1712 36.145 91.6449L35.687 90.1298L34.4648 90.4993L34.9227 92.0144Z" fill="#002CC7"/>
<path d="M45.1921 98.0673C45.9622 99.2377 46.2284 100.368 45.9906 101.459C45.7652 102.552 45.0561 103.491 43.8635 104.275C42.671 105.06 41.5244 105.342 40.424 105.121C39.3358 104.903 38.4067 104.209 37.6366 103.039C37.1297 102.268 36.8392 101.504 36.765 100.746C36.6958 99.9959 36.8427 99.2835 37.2058 98.6094C37.5813 97.9378 38.1652 97.3413 38.9578 96.8197C39.7504 96.2982 40.5257 96.0004 41.2836 95.9263C42.0538 95.8547 42.7698 95.9992 43.4317 96.3598C44.0984 96.7278 44.6852 97.2969 45.1921 98.0673ZM43.2477 99.3467C42.9991 98.969 42.6682 98.7887 42.2549 98.8058C41.8539 98.8256 41.3349 99.045 40.6979 99.4642C40.0608 99.8833 39.6502 100.276 39.466 100.641C39.2941 101.009 39.3324 101.382 39.581 101.759C39.8296 102.137 40.1544 102.316 40.5554 102.296C40.9638 102.272 41.4865 102.05 42.1235 101.631C42.7605 101.212 43.1675 100.822 43.3442 100.461C43.5284 100.096 43.4962 99.7245 43.2477 99.3467Z" fill="#002CC7"/>
<path d="M48.0245 115.152L45.6458 112.791L46.9656 108.479L47.3848 107.377L47.3659 107.358L46.1293 108.679L43.8335 110.992L41.9268 109.099L48.1113 102.869L50.49 105.231L49.1609 109.552L48.7511 110.645L48.7699 110.664L50.0066 109.342L52.3024 107.03L54.2091 108.923L48.0245 115.152Z" fill="#002CC7"/>
<path d="M65.9964 124.132L62.4749 123.05L62.2197 113.787L65.309 114.737L65.0548 119.682L64.9574 121.447L65.8352 119.95L68.4365 115.699L71.4114 116.613L65.9964 124.132Z" fill="#002CC7"/>
<path d="M76.3818 116.712C77.7817 116.766 78.8563 117.206 79.6055 118.033C80.3639 118.852 80.7159 119.975 80.6613 121.401C80.6067 122.828 80.1698 123.925 79.3507 124.692C78.5408 125.451 77.4358 125.803 76.0358 125.75C75.1143 125.714 74.3237 125.507 73.6638 125.127C73.0129 124.747 72.5186 124.213 72.1811 123.526C71.8528 122.83 71.7068 122.008 71.7431 121.06C71.7793 120.112 71.9876 119.308 72.3678 118.648C72.7572 117.98 73.2909 117.481 73.969 117.152C74.656 116.823 75.4603 116.677 76.3818 116.712ZM76.2927 119.038C75.8408 119.021 75.5018 119.185 75.2756 119.531C75.0586 119.869 74.9355 120.419 74.9063 121.181C74.8771 121.943 74.9577 122.505 75.1479 122.867C75.3473 123.221 75.673 123.407 76.1249 123.424C76.5768 123.441 76.9112 123.281 77.1282 122.943C77.3456 122.597 77.4689 122.042 77.498 121.28C77.5272 120.518 77.4465 119.96 77.2559 119.607C77.0657 119.245 76.7446 119.055 76.2927 119.038Z" fill="#002CC7"/>
<path d="M88.3633 121.603L88.9532 124.591L85.9128 125.191L85.3229 122.203L81.1985 117.174L84.2258 116.576L85.5282 118.366L86.4506 119.811L86.7548 118.124L87.2793 115.974L90.2674 115.384L88.3633 121.603Z" fill="#002CC7"/>
<path d="M97.8034 119.492L95.656 120.489L95.9876 122.183L93.1887 123.482L92.0744 114.321L95.4524 112.753L101.742 119.512L98.8709 120.844L97.8034 119.492ZM96.5812 117.933L94.7098 115.576L94.6736 115.593L94.9872 117.09L95.2662 118.544L96.5812 117.933Z" fill="#002CC7"/>
<path d="M103.971 111.976L107.145 109.428L110.242 113.287L108.645 114.569L107.938 113.858C108.057 114.729 107.674 115.519 106.789 116.23C106.187 116.713 105.539 117.017 104.844 117.143C104.15 117.256 103.451 117.164 102.745 116.866C102.047 116.562 101.395 116.034 100.79 115.28C99.8911 114.16 99.5029 113.039 99.6257 111.917C99.7554 110.789 100.377 109.779 101.49 108.885C102.341 108.202 103.132 107.806 103.863 107.697C104.601 107.582 105.377 107.749 106.192 108.198L104.591 110.814C104.034 110.305 103.514 110.245 103.03 110.634C102.629 110.956 102.446 111.33 102.482 111.756C102.511 112.176 102.765 112.683 103.242 113.278C103.753 113.914 104.22 114.29 104.642 114.405C105.059 114.514 105.482 114.396 105.911 114.052C106.215 113.808 106.406 113.558 106.485 113.301C106.565 113.033 106.51 112.781 106.322 112.546L106.313 112.535L105.162 113.459L103.971 111.976Z" fill="#002CC7"/>
<path d="M115.986 103.227L117.761 104.649L113.102 110.461L106.253 104.971L110.811 99.2836L112.586 100.706L109.966 103.975L110.817 104.657L112.93 102.021L114.569 103.336L112.456 105.972L113.266 106.621L115.986 103.227Z" fill="#002CC7"/>
</svg>
