<svg width="154" height="58" viewBox="0 0 154 58" fill="none" xmlns="http://www.w3.org/2000/svg">
<rect x="5.14673" y="3.33448" width="146.054" height="44.824" transform="rotate(2.53 5.14673 3.33448)" fill="#002CC7"/>
<path d="M23.563 18.2994C23.3727 19.125 23.1532 19.9589 22.9045 20.8013C22.6567 21.6244 22.4257 22.2833 22.2116 22.7781C22.7656 21.988 23.4454 21.3974 24.2509 21.0063C25.0573 20.5958 25.9307 20.4114 26.8709 20.4529C28.2525 20.514 29.2106 21.0218 29.7452 21.9764C30.2999 22.9124 30.5404 24.2128 30.4669 25.8775C30.3882 27.6584 30.0151 29.3583 29.3475 30.9774C28.7 32.578 27.7487 33.8742 26.4936 34.866C25.2577 35.8588 23.7763 36.317 22.0493 36.2407C21.1474 36.2008 20.146 36.0208 19.045 35.7006C17.9624 35.4006 17.1047 35.0136 16.4719 34.5396L21.0733 15.2511L24.3412 15.0464L23.563 18.2994ZM19.9485 33.5295C20.3011 33.8166 20.6946 34.0474 21.1291 34.2217C21.5828 34.3969 22.0016 34.493 22.3853 34.51C23.4023 34.5549 24.2079 34.1638 24.802 33.3367C25.4153 32.5104 25.9163 31.3979 26.3049 29.9993C26.511 29.252 26.7008 28.4361 26.8745 27.5516C27.0482 26.6671 27.1487 25.9152 27.1761 25.2957C27.2128 24.4634 27.0971 23.8182 26.829 23.3603C26.5608 22.9024 26.0909 22.6586 25.4193 22.6289C24.3831 22.5831 23.5262 23.0495 22.8485 24.0281C22.1708 25.0067 21.6672 26.1772 21.3379 27.5397L19.9485 33.5295Z" fill="#FCFCF2"/>
<path d="M31.5764 39.7745C31.6295 38.5744 32.6034 37.2016 34.4981 35.6561L33.2029 35.5989L33.2364 33.5348C33.2892 31.0352 33.3154 29.1357 33.3152 27.8362C33.3149 26.5367 33.272 25.3324 33.1864 24.2231C33.1264 23.4058 33.0186 22.7998 32.863 22.405C32.7074 22.0103 32.4616 21.6988 32.1256 21.4706C32.5517 20.9658 33.2157 20.7333 34.1175 20.7731C35.0578 20.8147 35.6886 21.1141 36.0101 21.6713C36.3507 22.2294 36.5225 23.1292 36.5253 24.3706C36.5226 25.3014 36.4862 26.5605 36.4161 28.1478L36.2968 30.8481L36.1461 33.6052C37.5079 31.9392 38.611 30.2521 39.4555 28.5439C40.3193 26.8365 40.787 25.1698 40.8589 23.5438C40.8845 22.9631 40.8422 22.3988 40.7318 21.8509C40.9915 21.6296 41.3163 21.4597 41.706 21.3412C42.1158 21.2041 42.5318 21.1449 42.954 21.1636C43.5296 21.189 43.9258 21.3617 44.1423 21.6816C44.3781 22.0023 44.4819 22.482 44.4537 23.1208C44.375 24.9017 43.6724 26.878 42.346 29.0498C41.0195 31.2216 39.1972 33.3036 36.8789 35.2958C36.2 35.8671 35.7159 36.379 35.4267 36.8317C35.1376 37.2844 34.9767 37.8786 34.9442 38.6142C34.9263 39.0206 34.9838 39.4596 35.1168 39.9309C35.2497 40.4023 35.4232 40.8269 35.6373 41.2049C35.3758 41.4649 35.0402 41.6634 34.6304 41.8004C34.2206 41.9375 33.795 41.9963 33.3537 41.9768C32.7396 41.9496 32.2781 41.7353 31.969 41.3337C31.6782 40.9524 31.5474 40.4326 31.5764 39.7745Z" fill="#FCFCF2"/>
<path d="M53.183 21.6155C54.3919 21.669 55.3398 21.9727 56.0267 22.5267C56.7328 23.0815 57.0602 23.9397 57.0088 25.1011C56.9601 26.2045 56.5924 27.1289 55.9058 27.8743C55.2191 28.6198 54.3104 29.1712 53.1795 29.5285C52.0677 29.8867 50.8403 30.0361 49.4971 29.9767C48.9598 29.953 48.4425 29.9107 47.9453 29.85C47.8595 30.4862 47.8051 31.0657 47.782 31.5883C47.7324 32.711 47.8967 33.5619 48.2748 34.1411C48.653 34.7203 49.3314 35.0315 50.31 35.0747C51.1351 35.1112 51.8825 34.9502 52.552 34.5919C53.2224 34.2143 53.7561 33.6657 54.1532 32.9462C54.3809 33.0145 54.5476 33.1576 54.6533 33.3756C54.759 33.5936 54.8055 33.8478 54.7927 34.1382C54.767 34.7189 54.5119 35.2701 54.0274 35.7917C53.543 36.3134 52.8805 36.7302 52.04 37.0421C51.1994 37.3541 50.2515 37.4868 49.1961 37.4402C47.5267 37.3664 46.2999 36.8467 45.5159 35.8811C44.7327 34.8962 44.3843 33.4261 44.4706 31.4711C44.5468 29.7483 44.9261 28.1262 45.6085 26.6048C46.311 25.0648 47.2981 23.8284 48.5698 22.8954C49.8607 21.9633 51.3985 21.5367 53.183 21.6155ZM52.4479 23.2413C51.4501 23.1972 50.5714 23.7209 49.8118 24.8122C49.053 25.8842 48.519 27.0922 48.2097 28.4361C49.6872 28.5014 50.9865 28.2485 52.1077 27.6774C53.2288 27.1063 53.8163 26.211 53.8702 24.9915C53.895 24.4302 53.7791 24.0081 53.5224 23.7252C53.2858 23.4238 52.9276 23.2625 52.4479 23.2413Z" fill="#FCFCF2"/>
<path d="M68.2557 20.2742C68.0654 21.0997 67.8459 21.9337 67.5972 22.7761C67.3493 23.5991 67.1183 24.258 66.9042 24.7529C67.4582 23.9627 68.138 23.3721 68.9436 22.9811C69.75 22.5706 70.6233 22.3862 71.5636 22.4277C72.9451 22.4887 73.9033 22.9966 74.4379 23.9511C74.9925 24.8872 75.2331 26.1876 75.1595 27.8523C75.0808 29.6331 74.7077 31.3331 74.0401 32.9522C73.3926 34.5527 72.4413 35.849 71.1863 36.8408C69.9504 37.8335 68.4689 38.2917 66.7419 38.2154C65.8401 38.1756 64.8386 37.9956 63.7377 37.6754C62.655 37.3754 61.7973 36.9884 61.1646 36.5144L65.766 17.2258L69.0339 17.0211L68.2557 20.2742ZM64.6411 35.5043C64.9937 35.7914 65.3873 36.0221 65.8218 36.1965C66.2755 36.3717 66.6942 36.4678 67.078 36.4847C68.095 36.5297 68.9005 36.1386 69.4946 35.3115C70.1079 34.4852 70.6089 33.3727 70.9975 31.9741C71.2036 31.2268 71.3935 30.4109 71.5671 29.5264C71.7408 28.6419 71.8413 27.8899 71.8687 27.2705C71.9055 26.4381 71.7898 25.793 71.5216 25.3351C71.2535 24.8771 70.7836 24.6333 70.112 24.6037C69.0758 24.5579 68.2188 25.0243 67.5411 26.0029C66.8634 26.9815 66.3599 28.152 66.0305 29.5145L64.6411 35.5043Z" fill="#FCFCF2"/>
<path d="M76.2691 41.7493C76.3221 40.5491 77.296 39.1763 79.1908 37.6309L77.8955 37.5737L77.9291 35.5096C77.9818 33.01 78.0081 31.1104 78.0078 29.811C78.0076 28.5115 77.9646 27.3071 77.8791 26.1978C77.8191 25.3806 77.7112 24.7746 77.5557 24.3798C77.4001 23.985 77.1543 23.6736 76.8183 23.4454C77.2443 22.9405 77.9083 22.708 78.8102 22.7479C79.7504 22.7894 80.3813 23.0888 80.7027 23.6461C81.0434 24.2042 81.2151 25.104 81.2179 26.3454C81.2152 27.2762 81.1788 28.5353 81.1087 30.1225L80.9894 32.8228L80.8387 35.58C82.2005 33.914 83.3036 32.2269 84.1482 30.5187C85.0119 28.8113 85.4797 27.1446 85.5515 25.5186C85.5772 24.9379 85.5348 24.3736 85.4244 23.8256C85.6842 23.6044 86.0089 23.4345 86.3987 23.3159C86.8085 23.1789 87.2245 23.1197 87.6466 23.1383C88.2223 23.1638 88.6184 23.3364 88.835 23.6563C89.0707 23.9771 89.1745 24.4568 89.1463 25.0956C89.0676 26.8765 88.365 28.8528 87.0386 31.0246C85.7122 33.1964 83.8898 35.2784 81.5715 37.2706C80.8926 37.8418 80.4085 38.3538 80.1194 38.8065C79.8302 39.2592 79.6694 39.8533 79.6369 40.5889C79.6189 40.9954 79.6764 41.4343 79.8094 41.9057C79.9424 42.3771 80.1159 42.8017 80.3299 43.1797C80.0685 43.4396 79.7328 43.6382 79.323 43.7752C78.9132 43.9123 78.4877 43.971 78.0463 43.9515C77.4323 43.9244 76.9707 43.7101 76.6616 43.3085C76.3708 42.9272 76.24 42.4074 76.2691 41.7493Z" fill="#FCFCF2"/>
<path d="M97.8757 23.5903C99.0845 23.6437 100.032 23.9474 100.719 24.5015C101.425 25.0563 101.753 25.9145 101.701 27.0759C101.653 28.1792 101.285 29.1036 100.598 29.8491C99.9118 30.5946 99.003 31.1459 97.8721 31.5033C96.7604 31.8614 95.5329 32.0108 94.1897 31.9515C93.6524 31.9278 93.1352 31.8855 92.638 31.8247C92.5522 32.461 92.4977 33.0404 92.4746 33.5631C92.425 34.6858 92.5893 35.5367 92.9675 36.1159C93.3456 36.695 94.024 37.0062 95.0026 37.0495C95.8278 37.0859 96.5751 36.925 97.2446 36.5667C97.915 36.189 98.4487 35.6405 98.8458 34.921C99.0735 34.9892 99.2402 35.1324 99.3459 35.3504C99.4517 35.5684 99.4981 35.8226 99.4853 36.1129C99.4596 36.6937 99.2046 37.2448 98.7201 37.7665C98.2356 38.2881 97.5731 38.7049 96.7326 39.0169C95.8921 39.3289 94.9441 39.4616 93.8887 39.4149C92.2193 39.3412 90.9926 38.8215 90.2085 37.8559C89.4253 36.8709 89.0769 35.4009 89.1633 33.4458C89.2394 31.7231 89.6187 30.101 90.3012 28.5795C91.0037 27.0396 91.9908 25.8031 93.2625 24.8702C94.5534 23.9381 96.0911 23.5115 97.8757 23.5903ZM97.1405 25.2161C96.1427 25.172 95.264 25.6956 94.5044 26.787C93.7457 27.859 93.2116 29.0669 92.9023 30.4109C94.3798 30.4762 95.6792 30.2233 96.8003 29.6522C97.9214 29.0811 98.5089 28.1858 98.5628 26.9663C98.5876 26.4049 98.4717 25.9828 98.215 25.7C97.9784 25.3986 97.6202 25.2373 97.1405 25.2161Z" fill="#FCFCF2"/>
<g clip-path="url(#clip0)">
<path d="M136.663 19.5524C135.842 18.4904 131.855 19.8183 130.435 20.9001L126.764 23.6951L112.98 19.3452C112.875 19.3116 112.76 19.3311 112.672 19.3978L111.157 20.5528C111.07 20.6185 111.021 20.7218 111.024 20.8299C111.027 20.938 111.082 21.0378 111.172 21.0988L121.493 28.0527L116.035 33.3766L111.986 32.0985C111.88 32.0669 111.766 32.0844 111.678 32.1511L110.541 33.017C110.457 33.0809 110.407 33.1819 110.408 33.2876C110.411 33.3957 110.462 33.4949 110.549 33.5555L113.722 35.8354L112.623 37.4505C112.542 37.5702 112.547 37.7286 112.636 37.8427C112.693 37.9156 112.774 37.959 112.861 37.9706C112.912 37.9773 112.965 37.9735 113.015 37.9562L114.871 37.3218L116.263 40.9575C116.301 41.0562 116.384 41.1325 116.487 41.1635C116.502 41.1678 116.517 41.1698 116.535 41.1721C116.623 41.1838 116.712 41.162 116.785 41.1075L117.923 40.2405C118.01 40.1738 118.059 40.0693 118.055 39.9611L117.864 35.7432L124.458 31.8922L128.537 43.5979C128.573 43.7006 128.657 43.7792 128.76 43.8103C128.778 43.816 128.795 43.8193 128.815 43.822C128.903 43.8338 128.991 43.8106 129.064 43.7561L130.582 42.6014C130.667 42.5344 130.718 42.4302 130.713 42.3196L130.065 27.9687L133.737 25.1737C135.157 24.0931 137.483 20.6155 136.663 19.5524Z" fill="#FC4E40"/>
</g>
<rect x="5.14673" y="3.33448" width="146.054" height="44.824" transform="rotate(2.53 5.14673 3.33448)" stroke="#FCFCF2" stroke-width="5"/>
<defs>
<clipPath id="clip0">
<rect width="26.7101" height="30.2823" fill="white" transform="matrix(0.991276 0.1318 -0.130297 0.991475 112.047 10.8926)"/>
</clipPath>
</defs>
</svg>
