<svg width="314" height="101" viewBox="0 0 314 101" fill="none" xmlns="http://www.w3.org/2000/svg">
<path fill-rule="evenodd" clip-rule="evenodd" d="M16.5631 86.9015C15.4045 79.8587 13.374 69.0694 9.8927 54.1543C6.37903 39.1007 4.24279 26.6814 2.98402 18.0144C2.35458 13.6805 1.94442 10.284 1.69109 7.96431C1.56443 6.80445 1.47697 5.91375 1.42092 5.30964C1.39289 5.00759 1.37271 4.77717 1.35941 4.62058L1.3445 4.44133L1.34068 4.39374L1.33923 4.3753C1.3392 4.37484 1.33917 4.37445 5.56865 3.89276L1.33923 4.3753C1.1942 2.49935 2.97016 0.762076 5.30604 0.496045C7.64174 0.230034 9.6528 1.53492 9.7981 3.41065C9.7981 3.41075 9.79809 3.41056 9.7981 3.41065L9.79884 3.42016L9.80184 3.45749L9.81503 3.61602C9.82715 3.7587 9.84608 3.97502 9.87278 4.26279C9.92619 4.83834 10.0107 5.69969 10.1341 6.82942C10.3808 9.08894 10.783 12.4217 11.4027 16.6883C12.6421 25.2223 14.7511 37.4889 18.2256 52.3746C21.7324 67.3988 23.7869 78.3058 24.9661 85.4745C25.5558 89.0589 25.9267 91.7089 26.151 93.4718C26.2631 94.3533 26.3386 95.013 26.3865 95.4569C26.4104 95.6788 26.4274 95.8468 26.4386 95.9616L26.4513 96.0939L26.4546 96.1303L26.456 96.146C26.4561 96.1465 26.4561 96.147 22.2402 96.6558L26.456 96.146C26.6206 98.0197 24.8616 99.7679 22.527 100.05C20.1927 100.331 18.1669 99.0412 18.0019 97.1679M18.0019 97.1679L17.9995 97.1413L17.9894 97.0358C17.9799 96.9389 17.9647 96.7886 17.9427 96.5842C17.8986 96.1754 17.8272 95.5502 17.7193 94.7026C17.5037 93.0074 17.1424 90.4229 16.5631 86.9015" fill="#FC4E40"/>
<path d="M5.97217 7.37917C5.97217 7.37917 29.9135 1.42694 42.9725 2.36671C56.0314 3.30648 69.8818 6.39756 94.8973 7.37917C110.332 7.98483 129.808 0.456883 148.879 1.01276C164.862 1.47864 189.554 6.67876 206.029 7.37917C227.074 8.27389 217.441 3.53921 243.215 2.3668C268.99 1.1944 316.504 20.721 313.897 22.6553C292.693 24.6004 288.363 22.5417 279.736 29.1603C289.985 36.2596 298.505 38.9004 310.339 45.2853C310.339 45.2853 302 44.4027 264.353 45.2853C237.411 45.9169 221.757 55.0655 203.723 55.0655C185.69 55.0655 173.291 53.299 148.879 55.0655C134.209 56.1271 111.477 61.7766 94.8973 62.2868C78.6553 62.7867 71.0783 58.6174 53.7683 59.4631C26.5422 60.7932 14.5145 64.751 14.5145 64.751L5.97217 7.37917Z" fill="#FC4E40"/>
<path d="M257.093 35.1206C257.093 35.5543 257.004 35.937 256.827 36.2686C256.599 36.7023 256.295 36.9191 255.915 36.9191C255.814 36.9191 255.662 36.9064 255.46 36.8809C255.282 36.8299 255.143 36.8043 255.042 36.8043C253.953 36.8043 252.371 37.136 250.294 37.7993C248.243 38.4625 246.674 38.7942 245.585 38.7942C241.508 38.7942 239.47 35.6819 239.47 29.4573C239.47 24.5592 239.597 20.6816 239.85 17.8244C239.875 17.4417 239.888 17.2376 239.888 17.2121C239.888 17.0335 239.863 16.7784 239.812 16.4468C239.761 16.0896 239.736 15.8345 239.736 15.6815C239.736 14.508 240.369 13.8192 241.635 13.6151C243.585 13.2579 245.534 12.888 247.484 12.5054C250.041 12.0207 251.953 11.7783 253.219 11.7783C253.953 11.7783 254.599 11.9059 255.156 12.161C255.915 12.5181 256.295 13.0156 256.295 13.6534C256.295 14.5973 255.675 15.0692 254.434 15.0692C254.282 15.0692 254.042 15.0564 253.712 15.0309C253.409 14.9799 253.181 14.9544 253.029 14.9544C250.978 14.9544 248.18 15.4136 244.635 16.332C244.433 16.3575 244.243 16.3958 244.066 16.4468C243.888 16.4978 243.762 16.6891 243.686 17.0208C243.407 18.2453 243.268 20.6433 243.268 24.2148C243.268 24.7505 243.509 25.0184 243.99 25.0184C244.648 25.0184 245.598 24.8526 246.838 24.5209C248.079 24.1893 249.028 24.0235 249.687 24.0235C250.421 24.0235 251.269 24.2531 252.231 24.7123C252.484 25.5286 252.611 26.0261 252.611 26.2046C252.611 26.8424 252.421 27.1868 252.041 27.2378C251.662 27.2888 251.256 27.3399 250.826 27.3909C250.623 27.2633 250.345 27.1996 249.99 27.1996C249.104 27.1996 248.041 27.3144 246.8 27.5439C245.762 27.7735 244.711 27.9904 243.648 28.1945C243.496 28.22 243.357 28.2455 243.23 28.271C243.129 28.2965 243.053 28.4496 243.002 28.7302C242.952 29.1894 242.926 29.5593 242.926 29.8399C242.926 31.8042 242.964 32.9777 243.04 33.3604C243.293 34.84 243.99 35.5798 245.129 35.5798C246.091 35.5798 247.497 35.2865 249.345 34.6997C251.193 34.0875 252.662 33.7813 253.75 33.7813C255.472 33.7813 256.586 34.2278 257.093 35.1206Z" fill="#FCFCF2"/>
<path d="M205.412 35.4815C205.412 36.706 204.868 37.331 203.779 37.3565C203.906 37.9433 204.184 38.7341 204.615 39.729C204.59 40.2903 204.362 40.7495 203.931 41.1066C203.501 41.4638 202.994 41.6423 202.412 41.6423C201.956 41.6423 201.425 41.502 200.817 41.2214C200.488 40.5581 200.323 39.7673 200.323 38.8489C200.323 38.6193 200.336 38.2877 200.361 37.854C200.387 37.4203 200.399 37.1014 200.399 36.8973C200.399 37.0759 199.981 37.1652 199.146 37.1652C197.728 37.1652 196.044 37.229 194.095 37.3565C191.309 37.5096 189.79 37.7264 189.537 38.0071C189.309 38.2877 189.157 39.6525 189.081 42.1015C188.752 42.5862 188.334 42.8286 187.828 42.8286C187.296 42.8286 186.752 42.6117 186.195 42.1781C185.638 41.7189 185.359 41.2342 185.359 40.7239C185.359 40.5454 185.587 39.8311 186.043 38.581C186.549 36.7698 187.372 34.0529 188.512 30.4304C191.904 21.0679 194.728 16.3867 196.981 16.3867C199.184 16.3867 200.88 18.8613 202.07 23.8103C202.602 26.0298 203.096 29.4355 203.551 34.0274C204.21 34.1804 204.628 34.308 204.805 34.41C205.21 34.6396 205.412 34.9968 205.412 35.4815ZM200.095 34.0274C198.981 25.1241 197.981 20.6725 197.095 20.6725C196.386 20.6725 195.145 22.7644 193.373 26.9482C192.107 29.9584 191.107 32.5733 190.373 34.7927C191.183 34.6141 192.386 34.3973 193.981 34.1422C195.424 33.9636 197.462 33.9253 200.095 34.0274Z" fill="#FCFCF2"/>
<path d="M132.911 23.3357C132.911 25.4276 132.582 28.2338 131.923 31.7542C131.442 34.2288 130.544 37.2646 129.227 40.8616C127.48 45.5555 125.973 47.9025 124.707 47.9025C123.441 47.9025 122.454 47.7112 121.745 47.3285C120.2 46.4867 118.859 43.1958 117.719 37.4559C117.086 33.5783 116.441 29.7006 115.782 25.823C115.732 25.5424 115.618 25.147 115.44 24.6367C115.314 24.5092 115.187 24.3689 115.061 24.2158C114.959 24.0628 114.909 23.8714 114.909 23.6418C114.909 23.1316 115.225 22.6724 115.858 22.2643C116.415 21.8816 116.972 21.6903 117.529 21.6903C118.162 21.6903 118.732 21.9326 119.238 22.4173C119.745 22.8765 119.998 23.425 119.998 24.0628C119.998 24.522 119.96 25.2235 119.884 26.1674C119.833 27.1113 119.808 27.8128 119.808 28.272C119.808 30.3639 120.125 32.8767 120.758 35.8104C121.922 41.2697 122.872 43.9994 123.606 43.9994C124.087 43.9994 124.555 43.604 125.011 42.8131C126.201 40.7978 127.277 37.7365 128.239 33.6293C129.176 29.7006 129.645 26.4608 129.645 23.9097C129.645 23.3229 129.455 22.8893 129.075 22.6086C128.72 22.3025 128.543 22.1239 128.543 22.0729C128.543 21.7923 128.86 21.4224 129.493 20.9632C130.126 20.504 130.594 20.2744 130.898 20.2744C131.43 20.2744 131.898 20.6443 132.303 21.3841C132.708 22.0984 132.911 22.749 132.911 23.3357Z" fill="#FCFCF2"/>
<path d="M69.7747 30.4166C69.7747 34.0902 68.8758 37.2025 67.0781 39.7536C65.0779 42.6363 62.3307 44.0776 58.8366 44.0776C57.8491 44.0776 56.7857 43.8863 55.6463 43.5036C53.1144 42.6873 51.304 41.2715 50.2153 39.2561C49.2785 37.5214 48.8101 35.1999 48.8101 32.2917C48.8101 28.5161 49.7089 25.1869 51.5066 22.3042C53.5828 18.9113 56.3933 17.2148 59.938 17.2148C63.0523 17.2148 65.5336 18.6817 67.382 21.6154C68.9771 24.141 69.7747 27.0747 69.7747 30.4166ZM66.1287 30.0723C66.1287 24.766 64.4322 21.5899 61.0394 20.544C60.6849 20.442 60.2798 20.3909 59.8241 20.3909C58.4062 20.3909 56.9883 21.0287 55.5704 22.3042C53.3169 24.3706 52.1902 28.0569 52.1902 33.3631C52.1902 33.8478 52.2915 34.5239 52.4941 35.3912C52.9245 37.3556 53.5701 38.7714 54.431 39.6388C55.4185 40.6592 56.8617 41.1694 58.7607 41.1694C61.3433 41.1694 63.2929 39.9066 64.6095 37.3811C65.6223 35.3912 66.1287 32.955 66.1287 30.0723Z" fill="#FCFCF2"/>
<path d="M42.5325 40.9425C42.555 41.7841 42.3734 42.5674 41.9875 43.2924C40.2492 46.4786 37.1527 48.1323 32.6981 48.2535C31.5338 48.2851 30.1879 48.1558 28.6604 47.8656C28.4032 48.6637 27.9455 49.0717 27.2874 49.0896C26.0725 49.1227 25.4514 48.6292 25.4241 47.6091C25.4227 47.5581 25.4204 47.4689 25.4169 47.3413C25.4135 47.2138 25.4111 47.1246 25.4098 47.0736C25.4036 46.8441 25.3619 46.7048 25.2846 46.6559C24.9515 46.5118 24.6306 46.3547 24.3221 46.1844C24.0136 46.0142 23.8532 45.6995 23.8409 45.2405C23.8198 44.45 24.1875 43.9934 24.944 43.8707L24.942 43.7942C24.929 43.3097 24.9215 42.5571 24.9195 41.5363C24.9195 40.5921 24.9117 39.8267 24.896 39.2401L24.8888 38.9724C24.3484 38.6553 24.0724 38.28 24.0608 37.8465C24.0478 37.362 24.277 36.9347 24.7483 36.5646L24.4348 24.8594C24.4238 24.4514 24.628 24.0375 25.0474 23.6178C25.4914 23.1719 25.9158 22.9434 26.3208 22.9324C26.8776 22.9173 27.2593 22.9834 27.4659 23.1309C27.7265 23.4046 27.9872 23.6782 28.2478 23.9518L27.9902 25.6814C29.673 23.2623 31.8559 22.0163 34.5388 21.9433C36.6649 21.8855 38.3562 22.6179 39.6128 24.1404C40.764 25.5127 41.369 27.2954 41.4278 29.4885C41.4612 30.7381 41.2293 32.0077 40.7319 33.2972C40.2366 34.6632 39.5566 35.7536 38.6919 36.5682C41.1935 37.2913 42.4737 38.7494 42.5325 40.9425ZM37.9688 29.4295C37.8848 26.2928 36.7165 24.7551 34.4638 24.8164C32.844 24.8604 31.367 25.9852 30.033 28.1906C28.7948 30.1894 28.1986 32.043 28.2443 33.7516L28.3099 36.1997L30.3601 36.144C33.0176 36.0717 34.9053 35.6248 36.0231 34.8033C37.3886 33.7709 38.0371 31.9796 37.9688 29.4295ZM39.0714 40.8069C39.0448 39.8124 37.7998 39.1955 35.3365 38.9562C34.3214 38.8818 32.6495 38.8762 30.321 38.9395C29.4857 38.9622 28.803 39.0063 28.2729 39.0718C28.2653 39.7355 28.2691 40.3479 28.2841 40.9089L28.3476 43.2805C28.362 43.8161 28.3869 44.2747 28.4225 44.6566C29.6763 45.1329 31.0499 45.3507 32.5433 45.3101C33.91 45.2729 35.2918 44.8526 36.6887 44.049C38.3107 43.1372 39.1049 42.0565 39.0714 40.8069Z" fill="#FCFCF2"/>
<path d="M229.868 32.8687C229.868 35.0881 228.906 37.0652 226.981 38.7999C225.057 40.5347 222.981 41.402 220.753 41.402C217.537 41.402 215.157 40.1393 213.612 37.6137C212.372 35.5473 211.751 32.7794 211.751 29.31C211.751 25.7895 212.498 22.6006 213.992 19.7434C215.79 16.2485 218.271 14.501 221.436 14.501C223.006 14.501 224.373 14.8709 225.538 15.6107C226.829 16.4525 227.627 17.6005 227.931 19.0546C228.184 20.2536 228.311 20.8276 228.311 20.7766C228.311 24.144 227.551 25.8277 226.032 25.8277C225.576 25.8277 225.158 25.6747 224.778 25.3685C224.399 25.0624 224.209 24.6798 224.209 24.2206C224.209 23.9655 224.335 23.5955 224.589 23.1108C224.867 22.6261 225.006 22.2435 225.006 21.9629C225.006 20.5088 224.829 19.5138 224.475 18.9781C224.019 18.2383 223.12 17.8684 221.778 17.8684C220.411 17.8684 219.145 18.723 217.98 20.4322C217.018 21.8608 216.385 23.3532 216.081 24.9094C215.777 26.5675 215.625 28.0982 215.625 29.5013C215.625 31.8993 215.815 33.634 216.195 34.7055C216.803 36.4402 218.031 37.5754 219.879 38.1112C220.436 38.2642 220.892 38.3407 221.246 38.3407C222.158 38.3407 223.12 37.9581 224.133 37.1928C225.019 36.4785 225.703 35.6749 226.184 34.782C226.462 34.2463 226.627 33.5702 226.677 32.7539L226.525 32.6391C224.728 32.6391 223.335 32.8559 222.348 33.2896C222.044 33.4427 221.74 33.6085 221.436 33.7871C221.031 33.9657 220.715 34.0549 220.487 34.0549C219.854 34.0549 219.36 33.7871 219.006 33.2514C218.651 32.7156 218.474 32.1161 218.474 31.4529C218.474 30.8916 218.765 30.4324 219.347 30.0753C219.727 29.8712 220.917 29.6288 222.917 29.3482C224.74 29.1186 226.019 29.0038 226.753 29.0038C228.83 29.0038 229.868 30.2921 229.868 32.8687Z" fill="#FCFCF2"/>
<path d="M185.038 18.92C184.759 19.4047 184.266 20.0552 183.557 20.8716C182.873 21.6624 182.405 22.2746 182.152 22.7083C181.924 23.142 180.404 27.0834 177.594 34.5325C175.214 40.8847 173.631 44.0608 172.847 44.0608C172.163 44.0608 171.568 43.8695 171.062 43.4868C170.479 43.0786 170.188 42.5429 170.188 41.8796C170.188 41.4715 170.416 40.9612 170.872 40.349C171.327 39.7367 171.834 38.6525 172.391 37.0964C172.796 35.9229 173.201 34.7494 173.606 33.5759C172.087 32.3514 170.745 30.4763 169.58 27.9508C167.555 23.6395 166.542 20.6037 166.542 18.8435C166.542 17.3638 167.2 16.624 168.517 16.624C170.036 16.624 170.796 17.5041 170.796 19.2644C170.796 19.443 170.758 19.7236 170.682 20.1062C170.631 20.4634 170.606 20.744 170.606 20.9481C170.606 22.0195 171.1 23.7032 172.087 25.9992C173.125 28.4227 174.062 29.8131 174.897 30.1702C175.227 29.6855 175.948 28.2186 177.062 25.7696C178.278 23.0655 179.227 21.1267 179.911 19.9532C181.05 18.0399 182 17.0832 182.759 17.0832C183.316 17.0832 183.81 17.2618 184.24 17.6189C184.696 17.9506 184.962 18.3843 185.038 18.92Z" fill="#FCFCF2"/>
<path d="M159.677 26.9899C159.677 30.6634 158.778 33.7757 156.981 36.3268C154.98 39.2095 152.233 40.6509 148.739 40.6509C147.752 40.6509 146.688 40.4595 145.549 40.0769C143.017 39.2605 141.206 37.8447 140.118 35.8294C139.181 34.0946 138.712 31.7731 138.712 28.8649C138.712 25.0893 139.611 21.7602 141.409 18.8775C143.485 15.4845 146.296 13.7881 149.84 13.7881C152.955 13.7881 155.436 15.255 157.284 18.1887C158.88 20.7142 159.677 23.648 159.677 26.9899ZM156.031 26.6455C156.031 21.3393 154.335 18.1632 150.942 17.1172C150.587 17.0152 150.182 16.9642 149.726 16.9642C148.309 16.9642 146.891 17.6019 145.473 18.8775C143.219 20.9438 142.093 24.6301 142.093 29.9364C142.093 30.4211 142.194 31.0971 142.396 31.9645C142.827 33.9288 143.473 35.3447 144.333 36.212C145.321 37.2324 146.764 37.7427 148.663 37.7427C151.246 37.7427 153.195 36.4799 154.512 33.9543C155.525 31.9645 156.031 29.5282 156.031 26.6455Z" fill="#FCFCF2"/>
<path d="M94.7027 22.7129C94.7027 22.9935 94.5887 23.3506 94.3608 23.7843C94.0823 24.3456 93.9177 24.69 93.8671 24.8175C93.1328 27.139 92.7657 29.0395 92.7657 30.5192L92.6518 41.5015C92.6264 42.624 92.3732 43.772 91.8922 44.9455C91.2592 46.4251 90.4743 47.1649 89.5375 47.1649C88.1449 47.1649 86.765 45.9914 85.3977 43.6444C84.4102 41.9097 83.4101 39.5117 82.3973 36.4504C81.815 34.4606 81.22 32.4707 80.6123 30.4809C80.0806 34.8177 79.8147 37.7259 79.8147 39.2056C79.8147 42.4709 80.0046 44.346 80.3844 44.8307C80.7895 45.3154 80.9921 45.6725 80.9921 45.9021C80.9921 46.3868 80.7389 46.8205 80.2325 47.2032C79.7261 47.5603 79.2197 47.7389 78.7133 47.7389C78.0044 47.7389 77.422 46.9863 76.9663 45.4812C76.6118 44.3077 76.4346 43.2362 76.4346 42.2668C76.4346 41.8332 76.4472 41.1954 76.4725 40.3535C76.4979 39.4862 76.5105 38.8356 76.5105 38.402C76.5105 37.356 76.6371 35.7999 76.8903 33.7335C77.1435 31.6671 77.2701 30.111 77.2701 29.065V24.3966C77.2701 24.3456 77.2448 24.269 77.1942 24.167C77.1688 24.0649 77.1562 23.9884 77.1562 23.9374C77.1562 23.4272 77.498 23.0062 78.1816 22.6746C78.7387 22.394 79.2957 22.2537 79.8527 22.2537C81.144 22.2537 82.0682 22.6746 82.6252 23.5165C82.7771 23.7971 82.9164 24.3838 83.043 25.2767C83.1189 25.889 83.1949 26.514 83.2709 27.1517C83.5747 28.963 84.3723 31.8712 85.6636 35.8764C87.2081 40.5959 88.3601 42.9556 89.1197 42.9556C89.3982 42.9556 89.5375 42.5985 89.5375 41.8842C89.5375 41.6801 89.4995 41.3485 89.4235 40.8893C89.3729 40.4301 89.3476 40.0729 89.3476 39.8178L89.7274 29.4477C89.8033 27.8915 90.0692 26.3609 90.5249 24.8558C91.1832 22.7384 92.0694 21.6797 93.1835 21.6797C93.5379 21.6797 94.0317 21.9093 94.6647 22.3685C94.69 22.496 94.7027 22.6108 94.7027 22.7129Z" fill="#FCFCF2"/>
</svg>
