<svg width="203" height="210" viewBox="0 0 203 210" fill="none" xmlns="http://www.w3.org/2000/svg">
<path d="M122.536 36.4051C160.585 48.0029 182.043 88.1809 170.465 126.145C158.887 164.11 118.657 185.484 80.6085 173.886C42.5601 162.289 21.1017 122.111 32.6797 84.1461C44.2577 46.1817 84.4878 24.8074 122.536 36.4051Z" fill="#002CC7"/>
<path d="M121.439 40.003C157.496 50.9938 177.832 89.0692 166.86 125.047C155.888 161.024 117.763 181.28 81.7057 170.289C45.6486 159.298 25.3131 121.223 36.2852 85.2455C47.2573 49.2679 85.382 29.0121 121.439 40.003Z" fill="#FCFCF2"/>
<path d="M152.988 93.6595C158.369 91.6365 164.314 91.7029 169.656 93.8458C166.697 76.9324 157.568 61.712 144.041 51.1406C130.514 40.5692 113.556 35.4013 96.4589 36.6406L95.7973 45.3651C95.6997 46.6508 95.9209 47.9414 96.4413 49.1221C96.9617 50.3028 97.7651 51.337 98.7802 52.1327L123.072 71.2089C126.377 73.8034 128.919 77.2455 130.427 81.1686L134.681 92.2761C135.429 94.2161 136.914 95.7812 138.812 96.6276C140.709 97.4741 142.862 97.5327 144.8 96.7907L152.988 93.6595Z" fill="#002CC7"/>
<path d="M131.439 140.346C140.603 136.636 151.396 136.218 160.813 139.22C160.813 139.22 156.19 150.116 140.786 161.225C125.381 172.333 107.572 173.029 105.99 173.22C106.004 172.804 105.904 172.075 105.99 171.667C107.698 164.953 110.853 158.68 115.24 153.276C119.627 147.873 125.142 143.466 131.409 140.358C131.419 140.354 131.429 140.35 131.439 140.346Z" fill="#002CC7"/>
<path d="M32.5636 106.976C32.6075 109.329 32.7717 111.679 33.0557 114.015C34.1862 123.273 37.2022 132.206 41.9204 140.269C46.6386 148.332 52.9603 155.359 60.5011 160.92L60.6079 160.328C61.0365 158.041 60.7811 155.679 59.8733 153.534L43.1594 114.159C42.0553 111.564 40.0593 109.442 37.5266 108.171C35.9795 107.419 34.2859 107.012 32.5636 106.976Z" fill="#002CC7"/>
<path d="M102.056 89.4408C99.7629 101.841 87.8318 110.025 75.4067 107.721C62.9817 105.417 54.7678 93.497 57.0606 81.0969C59.3533 68.6968 71.2844 60.5124 83.7095 62.8165C96.1345 65.1206 104.348 77.0407 102.056 89.4408Z" fill="#002CC7"/>
<mask id="mask0" mask-type="alpha" maskUnits="userSpaceOnUse" x="58" y="64" width="43" height="43">
<path d="M100.041 89.0677C97.9534 100.357 87.0907 107.809 75.7784 105.711C64.466 103.613 56.9877 92.7607 59.0751 81.471C61.1626 70.1814 72.0252 62.7299 83.3376 64.8276C94.6499 66.9254 102.128 77.778 100.041 89.0677Z" fill="#97D9FD"/>
</mask>
<g mask="url(#mask0)">
<path d="M100.041 89.0677C97.9534 100.357 87.0907 107.809 75.7784 105.711C64.466 103.613 56.9877 92.7607 59.0751 81.471C61.1626 70.1814 72.0252 62.7299 83.3376 64.8276C94.6499 66.9254 102.128 77.778 100.041 89.0677Z" fill="#FCFCF2"/>
<path d="M85.7819 76.0255C83.2496 89.7211 70.0719 98.7606 56.3488 96.2158C42.6256 93.671 33.5535 80.5055 36.0858 66.8099C38.6181 53.1142 51.7957 44.0747 65.5189 46.6195C79.2421 49.1643 88.3141 62.3298 85.7819 76.0255Z" fill="#002CC7"/>
<path d="M127.515 150.85C121.842 181.531 93.6404 202.026 64.5249 196.627C35.4095 191.228 16.4056 161.979 22.0785 131.298C27.7513 100.616 55.9528 80.121 85.0682 85.5202C114.184 90.9193 133.188 120.168 127.515 150.85Z" fill="#FCFCF2"/>
<path fill-rule="evenodd" clip-rule="evenodd" d="M64.97 194.22C92.6315 199.35 119.653 179.88 125.103 150.402C130.553 120.925 112.285 93.0565 84.6232 87.927C56.9617 82.7975 29.9404 102.268 24.4901 131.745C19.0399 161.222 37.3084 189.091 64.97 194.22ZM64.5249 196.627C93.6404 202.026 121.842 181.531 127.515 150.85C133.188 120.168 114.184 90.9193 85.0682 85.5202C55.9528 80.121 27.7513 100.616 22.0785 131.298C16.4056 161.979 35.4095 191.228 64.5249 196.627Z" fill="#002CC7"/>
</g>
<path d="M148.326 98.0208C146.033 110.421 134.102 118.605 121.677 116.301C109.252 113.997 101.038 102.077 103.331 89.677C105.624 77.2769 117.555 69.0924 129.98 71.3965C142.405 73.7006 150.619 85.6207 148.326 98.0208Z" fill="#002CC7"/>
<mask id="mask1" mask-type="alpha" maskUnits="userSpaceOnUse" x="104" y="73" width="43" height="42">
<path d="M146.311 97.6477C144.224 108.937 133.361 116.389 122.049 114.291C110.737 112.193 103.258 101.341 105.346 90.0511C107.433 78.7614 118.296 71.3099 129.608 73.4077C140.92 75.5055 148.399 86.3581 146.311 97.6477Z" fill="#97D9FD"/>
</mask>
<g mask="url(#mask1)">
<path d="M146.311 97.6477C144.224 108.937 133.361 116.389 122.049 114.291C110.737 112.193 103.258 101.341 105.346 90.0511C107.433 78.7614 118.296 71.3099 129.608 73.4077C140.92 75.5055 148.399 86.3581 146.311 97.6477Z" fill="#FCFCF2"/>
<path d="M132.052 84.6056C129.52 98.3012 116.342 107.341 102.619 104.796C88.8961 102.251 79.8241 89.0856 82.3563 75.3899C84.8886 61.6943 98.0663 52.6548 111.789 55.1996C125.513 57.7444 134.585 70.9099 132.052 84.6056Z" fill="#002CC7"/>
<path d="M173.785 159.43C168.112 190.111 139.911 210.606 110.795 205.207C81.6801 199.808 62.6761 170.559 68.349 139.878C74.0218 109.196 102.223 88.7011 131.339 94.1002C160.454 99.4994 179.458 128.748 173.785 159.43Z" fill="#FCFCF2"/>
<path fill-rule="evenodd" clip-rule="evenodd" d="M111.24 202.8C138.902 207.93 165.923 188.46 171.374 158.983C176.824 129.505 158.555 101.637 130.894 96.5071C103.232 91.3775 76.2109 110.848 70.7607 140.325C65.3105 169.802 83.5789 197.671 111.24 202.8ZM110.795 205.207C139.911 210.606 168.112 190.111 173.785 159.43C179.458 128.748 160.454 99.4994 131.339 94.1002C102.223 88.7011 74.0218 109.196 68.349 139.878C62.6761 170.559 81.6801 199.808 110.795 205.207Z" fill="#002CC7"/>
</g>
<path fill-rule="evenodd" clip-rule="evenodd" d="M97.8022 125.694C115.375 128.366 132.416 124.125 146.208 114.989C146.155 116.829 145.989 118.685 145.706 120.551C141.925 145.493 118.599 162.631 93.6052 158.83C68.6119 155.029 51.4161 131.727 55.1974 106.785C55.4127 105.365 55.6915 103.969 56.0303 102.602C66.4212 114.624 80.9333 123.128 97.8022 125.694Z" fill="#FCFCF2"/>
<path fill-rule="evenodd" clip-rule="evenodd" d="M69.3049 117.815C65.1313 115.116 61.2708 112.002 57.772 108.539C56.3966 119.988 59.6973 130.99 66.2166 139.571L69.3049 117.815ZM68.6213 142.465L71.8938 119.412C78.8003 123.472 86.4893 126.425 94.7595 127.995L90.858 155.479C82.0159 153.458 74.3623 148.793 68.6213 142.465ZM65.9143 143.609C65.8364 143.519 65.7588 143.429 65.6817 143.339C57.3429 133.599 53.1277 120.438 55.1974 106.785C55.2375 106.521 55.2797 106.257 55.3241 105.995C55.5185 104.846 55.7545 103.715 56.0303 102.602C56.7728 103.461 57.5363 104.302 58.3203 105.124C68.5072 115.809 82.1387 123.311 97.8022 125.694C106.108 126.957 114.294 126.676 122.075 125.063C122.358 125.004 122.641 124.944 122.923 124.882C130.165 123.285 137.043 120.533 143.325 116.799C144.301 116.219 145.262 115.616 146.208 114.989C146.175 116.135 146.098 117.289 145.976 118.446C145.903 119.146 145.813 119.848 145.706 120.551C143.379 135.9 133.651 148.293 120.688 154.67C120.639 154.695 120.589 154.719 120.54 154.743C112.471 158.676 103.16 160.283 93.6052 158.83C82.4191 157.129 72.7949 151.521 65.9143 143.609ZM121.169 151.282C132.453 145.088 140.827 133.918 142.934 120.235C137.206 123.42 131.03 125.834 124.565 127.361L121.169 151.282ZM121.661 127.984L118.139 152.794C110.84 156.083 102.534 157.374 94.0222 156.08C93.8804 156.058 93.7389 156.036 93.5977 156.013L97.5087 128.463C105.76 129.703 113.898 129.479 121.661 127.984Z" fill="#002CC7"/>
<path d="M25.3469 34.4454L31.8004 41.2663L31.2525 28.8579L34.7392 25.5589L35.1208 36.3075L48.5216 39.7767L45.0784 43.0344L34.7766 40.3088L34.9344 44.5787L38.9549 48.8281L35.9476 51.6734L22.3396 37.2907L25.3469 34.4454Z" fill="#FC4E40"/>
<path d="M55.7082 35.0587L46.9809 17.2858L60.3106 10.7404L61.7784 13.7295L52.1649 18.4501L54.3334 22.8664L61.9004 19.1507L63.302 22.0052L55.7351 25.7208L57.9566 30.2448L67.9471 25.3391L69.4148 28.3282L55.7082 35.0587Z" fill="#FC4E40"/>
<path d="M77.7998 25.3465L73.8362 5.94725L88.3857 2.9746L89.0523 6.2372L78.559 8.38111L79.5439 13.2015L87.8033 11.514L88.4399 14.6297L80.1805 16.3172L81.1894 21.2552L92.0941 19.0272L92.7607 22.2898L77.7998 25.3465Z" fill="#FC4E40"/>
<path d="M113.41 4.41664C115.658 4.64589 117.371 5.3935 118.549 6.65949C119.728 7.90558 120.217 9.52347 120.014 11.5132C119.809 13.5227 119.003 15.0187 117.596 16.0011C116.189 16.9834 114.362 17.36 112.113 17.1307L107.965 16.7077L107.253 23.6915L103.134 23.2716L105.143 3.57371L113.41 4.41664ZM111.818 13.8137C114.286 14.0652 115.625 13.1564 115.836 11.0871C116.047 9.01785 114.919 7.85743 112.451 7.60587L108.93 7.24679L108.297 13.4546L111.818 13.8137Z" fill="#FC4E40"/>
<path d="M100.346 204.353C99.5542 206.223 98.3635 207.56 96.7745 208.364C95.1874 209.148 93.399 209.439 91.4092 209.238C89.4591 209.041 87.809 208.461 86.4589 207.501C85.1287 206.542 84.1521 205.267 83.5292 203.676C82.9261 202.087 82.7313 200.238 82.9448 198.129C83.1583 196.02 83.7296 194.248 84.6587 192.815C85.5878 191.381 86.8 190.328 88.2953 189.655C89.7907 188.982 91.4935 188.742 93.4037 188.936C95.4135 189.139 97.0914 189.741 98.4375 190.742C99.8054 191.724 100.671 193.099 101.036 194.864L97.1445 196.068C96.927 194.84 96.4953 193.942 95.8492 193.374C95.2051 192.787 94.3359 192.437 93.2415 192.326C91.6098 192.161 90.247 192.616 89.1532 193.692C88.0813 194.749 87.4345 196.372 87.213 198.561C86.9935 200.73 87.2819 202.448 88.0784 203.714C88.8749 204.981 90.1388 205.702 91.8699 205.877C92.9444 205.986 93.8989 205.791 94.7333 205.293C95.5877 204.796 96.2335 203.977 96.6707 202.835L100.346 204.353Z" fill="#FC4E40"/>
<path d="M118.176 187.649C120.097 187.262 121.835 187.33 123.389 187.854C124.943 188.377 126.243 189.309 127.288 190.649C128.352 191.985 129.094 193.693 129.512 195.771C129.931 197.849 129.908 199.71 129.443 201.354C128.998 202.995 128.161 204.357 126.931 205.441C125.7 206.525 124.125 207.261 122.203 207.648C120.282 208.034 118.534 207.968 116.961 207.449C115.407 206.925 114.097 205.995 113.033 204.659C111.988 203.319 111.256 201.61 110.837 199.532C110.419 197.453 110.432 195.594 110.877 193.954C111.342 192.31 112.189 190.946 113.419 189.862C114.669 188.773 116.255 188.036 118.176 187.649ZM118.845 190.972C117.198 191.304 116.04 192.139 115.371 193.477C114.718 194.792 114.609 196.528 115.043 198.685C115.477 200.841 116.252 202.409 117.367 203.388C118.498 204.344 119.887 204.656 121.534 204.324C123.161 203.997 124.302 203.175 124.955 201.86C125.624 200.522 125.741 198.775 125.307 196.618C124.873 194.461 124.09 192.905 122.959 191.949C121.844 190.97 120.473 190.645 118.845 190.972Z" fill="#FC4E40"/>
<path d="M142.824 178.773C144.517 177.785 146.183 177.288 147.823 177.28C149.463 177.273 150.994 177.734 152.416 178.663C153.856 179.583 155.11 180.958 156.179 182.789C157.248 184.62 157.828 186.389 157.921 188.095C158.031 189.79 157.679 191.35 156.866 192.774C156.053 194.198 154.8 195.404 153.107 196.392C151.414 197.38 149.739 197.883 148.082 197.901C146.443 197.908 144.903 197.452 143.463 196.533C142.04 195.603 140.795 194.222 139.726 192.392C138.658 190.561 138.068 188.797 137.959 187.101C137.866 185.395 138.226 183.83 139.039 182.406C139.87 180.972 141.131 179.761 142.824 178.773ZM144.533 181.701C143.082 182.548 142.257 183.713 142.057 185.196C141.864 186.651 142.322 188.329 143.431 190.229C144.54 192.129 145.781 193.362 147.153 193.927C148.532 194.466 149.947 194.311 151.398 193.464C152.832 192.628 153.645 191.482 153.838 190.026C154.037 188.543 153.583 186.852 152.474 184.952C151.365 183.052 150.121 181.832 148.742 181.294C147.37 180.729 145.967 180.864 144.533 181.701Z" fill="#FC4E40"/>
<path d="M172.902 176.513L180.063 168.915L182.486 171.199L172.486 181.809L158.077 168.229L160.917 165.216L172.902 176.513Z" fill="#FC4E40"/>
<path d="M170.15 72.6676L171.547 72.1206L170.807 70.2302L169.217 71.4933L170.15 72.6676ZM170.15 72.6676C169.217 71.4933 169.217 71.4934 169.217 71.4936L169.216 71.4943L169.213 71.4966L169.202 71.5052L169.161 71.5382C169.125 71.567 169.072 71.6095 169.003 71.665C168.865 71.776 168.663 71.939 168.406 72.1489C167.891 72.5686 167.154 73.176 166.26 73.9295C164.473 75.4355 162.054 77.5296 159.531 79.8786C157.012 82.2245 154.371 84.8413 152.149 87.3917C149.954 89.9103 148.061 92.4829 147.161 94.7313L147.161 94.7313C142.948 105.259 149.191 115.07 157.926 117.454C166.608 119.824 177.4 114.653 178.748 103.301C179.056 100.711 178.718 97.4473 178.096 94.1073C177.469 90.7388 176.53 87.1719 175.563 83.9267C174.595 80.6779 173.592 77.7302 172.832 75.5955C172.452 74.5275 172.131 73.6616 171.906 73.0614C171.793 72.7612 171.704 72.5275 171.643 72.368C171.612 72.2883 171.588 72.2272 171.572 72.1856L171.554 72.138L171.549 72.1255L171.548 72.1221L171.547 72.1211C171.547 72.1208 171.547 72.1206 170.15 72.6676Z" fill="#FCFCF2" stroke="#002CC7" stroke-width="3"/>
<path d="M130.853 17.8892C130.853 17.8892 174.998 25.2387 193.308 72.5231C211.618 119.808 183.935 154.971 183.935 154.971" stroke="#FED13F" stroke-width="5"/>
<path d="M66.3453 193.726C66.3453 193.726 24.0238 183.578 8.27084 135.381C-7.48217 87.1846 20.676 54.0002 20.676 54.0002" stroke="#FED13F" stroke-width="5"/>
</svg>
