<svg width="186" height="43" viewBox="0 0 186 43" fill="none" xmlns="http://www.w3.org/2000/svg">
<rect width="95.5767" height="30.52" transform="translate(0.000976562 4.09082) rotate(-2.3203)" fill="#0AAA93"/>
<path d="M10.4159 14.1329C10.4118 14.0318 10.4316 13.9527 10.4754 13.8956C10.5191 13.8386 10.5824 13.8084 10.6651 13.8051L13.2861 13.6989C13.4516 13.6922 13.5383 13.7854 13.5461 13.9785L13.8496 21.4688C13.8526 21.5424 13.8638 21.5926 13.8834 21.6195C13.9121 21.6459 13.9586 21.6579 14.023 21.6553L18.1751 21.487C18.3866 21.4784 18.4959 21.5615 18.503 21.7363L18.5717 23.433C18.5755 23.5249 18.5462 23.5998 18.4841 23.6576C18.4312 23.715 18.3495 23.7459 18.2392 23.7504L11.1902 24.036C11.0523 24.0416 10.9546 24.0179 10.8972 23.965C10.8398 23.9121 10.8087 23.8258 10.8038 23.7063L10.4159 14.1329Z" fill="#FCFCF2"/>
<path d="M20.2455 13.7347C20.2369 13.5232 20.32 13.4139 20.4947 13.4068L27.9437 13.1049C28.1092 13.0982 28.1959 13.1914 28.2037 13.3846L28.2548 14.9853C28.2648 15.2336 28.1503 15.3626 27.9112 15.3723L23.7729 15.5399C23.5614 15.5485 23.4592 15.6402 23.4662 15.8149L23.5138 16.9874C23.5175 17.0794 23.5435 17.152 23.5917 17.2053C23.6395 17.2494 23.7002 17.27 23.7738 17.267L26.2568 17.1664C26.4499 17.1586 26.5502 17.2467 26.5576 17.4306L26.627 19.1411C26.6333 19.2974 26.5537 19.3789 26.3882 19.3856L23.8362 19.4891C23.7718 19.4917 23.7174 19.5123 23.6729 19.5509C23.6376 19.5892 23.6211 19.6359 23.6233 19.6911L23.6792 21.0706C23.6822 21.1441 23.6934 21.1943 23.7129 21.2212C23.7416 21.2476 23.7882 21.2596 23.8526 21.257L28.3357 21.0753C28.5381 21.0671 28.6428 21.1504 28.6498 21.3251L28.7186 23.0218C28.7223 23.1138 28.6977 23.1885 28.6448 23.2459C28.5918 23.3033 28.5102 23.3342 28.3998 23.3387L21.0198 23.6377C20.8819 23.6433 20.7842 23.6197 20.7268 23.5667C20.6694 23.5138 20.6382 23.4275 20.6334 23.308L20.2455 13.7347Z" fill="#FCFCF2"/>
<path d="M34.9534 23.0732C34.8431 23.0776 34.7544 23.049 34.6874 22.9872C34.6201 22.9163 34.584 22.821 34.5791 22.7015L34.1929 13.1695C34.1884 13.0592 34.2083 12.9801 34.2524 12.9322C34.2961 12.8752 34.3686 12.8446 34.4697 12.8405L38.3322 12.684C38.4517 12.6792 38.5352 12.6942 38.5827 12.7291C38.639 12.7545 38.6876 12.817 38.7285 12.9167L40.3408 17.2452C40.3714 17.3176 40.4051 17.3531 40.4419 17.3516C40.4695 17.3505 40.4956 17.3126 40.5202 17.2379L41.6314 12.951C41.6942 12.6814 41.813 12.543 41.9877 12.5359L45.9743 12.3744C46.1398 12.3677 46.2265 12.4609 46.2343 12.654L46.6211 22.1997C46.627 22.3469 46.5945 22.4541 46.5236 22.5215C46.4614 22.5792 46.3522 22.6113 46.1959 22.6176L43.8646 22.7121C43.7267 22.7177 43.629 22.694 43.5716 22.6411C43.5234 22.5878 43.4968 22.5013 43.492 22.3818L43.241 16.1881C43.238 16.1145 43.2182 16.0785 43.1814 16.08C43.1354 16.0818 43.1003 16.1247 43.0761 16.2086L41.344 22.5655C41.2863 22.7337 41.1793 22.8209 41.023 22.8272L39.5746 22.8859C39.409 22.8926 39.2953 22.8143 39.2334 22.651L36.9972 16.5654C36.9659 16.4746 36.9318 16.4299 36.8951 16.4314C36.8491 16.4333 36.8281 16.4848 36.8322 16.5859L37.0793 22.6831C37.0841 22.8026 37.0691 22.8861 37.0342 22.9336C36.9989 22.9719 36.9168 22.9936 36.7881 22.9988L34.9534 23.0732Z" fill="#FCFCF2"/>
<path d="M53.7134 22.4512C52.711 22.4918 51.8242 22.3159 51.0529 21.9234C50.2905 21.5214 49.6912 20.9377 49.2549 20.1724C48.8182 19.3979 48.5784 18.4819 48.5356 17.4243C48.4927 16.3668 48.6576 15.4344 49.0302 14.6271C49.4116 13.8102 49.966 13.1706 50.6934 12.7082C51.4296 12.2362 52.2943 11.9801 53.2875 11.9399C54.2715 11.9 55.1449 12.0857 55.9076 12.4969C56.67 12.899 57.2698 13.4918 57.7068 14.2755C58.1527 15.0496 58.3971 15.9655 58.4399 17.023C58.4824 18.0714 58.3173 18.9992 57.9448 19.8065C57.5722 20.6138 57.0222 21.2486 56.2948 21.711C55.567 22.1642 54.7066 22.411 53.7134 22.4512ZM53.6262 20.2993C54.0308 20.2829 54.3488 20.1733 54.58 19.9705C54.811 19.7585 54.9726 19.4295 55.0651 18.9836C55.1576 18.5377 55.1887 17.9423 55.1585 17.1974C55.1123 16.0571 54.9504 15.2439 54.6728 14.7577C54.3952 14.2715 53.9621 14.0404 53.3735 14.0642C52.7758 14.0884 52.3536 14.3542 52.107 14.8616C51.8697 15.3687 51.7741 16.1924 51.8203 17.3327C51.8505 18.0776 51.9297 18.6685 52.0579 19.1055C52.1862 19.5424 52.3739 19.8572 52.6212 20.0498C52.8774 20.2329 53.2123 20.316 53.6262 20.2993Z" fill="#FCFCF2"/>
<path d="M63.2288 11.6752C63.3943 11.6685 63.481 11.7617 63.4888 11.9549L63.8756 21.5006C63.8816 21.6477 63.8491 21.755 63.7781 21.8223C63.7068 21.8805 63.5929 21.9127 63.4366 21.9191L61.1329 22.0124C60.995 22.018 60.8973 21.9943 60.8399 21.9414C60.7825 21.8884 60.7514 21.8022 60.7465 21.6826L60.3586 12.1093C60.3545 12.0082 60.3743 11.9291 60.4181 11.872C60.4618 11.815 60.5251 11.7848 60.6079 11.7814L63.2288 11.6752Z" fill="#FCFCF2"/>
<path d="M74.7341 11.2091C74.872 11.2035 74.9442 11.2788 74.9505 11.4352L75.3457 21.1878C75.3486 21.2614 75.3189 21.3225 75.2564 21.3711C75.203 21.4193 75.1304 21.4452 75.0384 21.449L73.1486 21.5255C73.0658 21.5289 72.9963 21.5179 72.94 21.4925C72.8929 21.4668 72.8355 21.4139 72.7678 21.3337L68.7658 16.3421C68.7272 16.2976 68.6943 16.2805 68.667 16.2908C68.6398 16.3012 68.6271 16.3293 68.629 16.3753L68.8325 21.3964C68.8461 21.5064 68.8263 21.5855 68.773 21.6337C68.7289 21.6816 68.6424 21.7081 68.5137 21.7133L66.6377 21.7894C66.4078 21.7987 66.2891 21.7114 66.2816 21.5274L65.8909 11.8852C65.8824 11.6736 65.9792 11.5638 66.1815 11.5556L68.43 11.4645C68.5496 11.4596 68.6377 11.4745 68.6944 11.509C68.7599 11.534 68.8314 11.5956 68.9091 11.6938L72.4064 16.167C72.465 16.2475 72.5172 16.2868 72.5632 16.285C72.6092 16.2831 72.6298 16.2224 72.6249 16.1028L72.4421 11.5921C72.4343 11.399 72.5316 11.2983 72.7339 11.2901L74.7341 11.2091Z" fill="#FCFCF2"/>
<path d="M83.546 13.6016C83.3156 13.3714 83.0691 13.1972 82.8063 13.0789C82.5528 12.9602 82.187 12.9105 81.7088 12.9299C81.2306 12.9493 80.8793 13.0326 80.655 13.1799C80.4307 13.3271 80.3224 13.4973 80.3302 13.6904C80.3436 14.0215 80.6474 14.2441 81.2416 14.3582L83.5555 14.8586C84.4009 15.0362 85.0459 15.3831 85.4906 15.8993C85.9349 16.4064 86.1719 17.0278 86.2017 17.7635C86.2293 18.444 86.074 19.0444 85.7358 19.5647C85.3977 20.0851 84.8985 20.4968 84.2384 20.7999C83.5874 21.1026 82.8159 21.272 81.9239 21.3081C80.9123 21.3491 79.9814 21.221 79.1311 20.9239C78.2896 20.6172 77.697 20.199 77.3531 19.6695C77.3034 19.5794 77.2776 19.5114 77.2758 19.4654C77.272 19.3734 77.3193 19.2886 77.4174 19.2109L78.7986 18.174C78.8971 18.1055 78.9878 18.0696 79.0706 18.0662C79.1717 18.0621 79.2562 18.1001 79.3239 18.1803C79.653 18.5723 79.9818 18.8445 80.3104 18.997C80.6389 19.1495 81.0699 19.2149 81.6033 19.1933C82.1183 19.1724 82.5201 19.0871 82.8088 18.9372C83.1063 18.7778 83.2501 18.5739 83.24 18.3256C83.2329 18.1509 83.1532 18.0021 83.0009 17.8793C82.8485 17.7565 82.6285 17.6687 82.3408 17.6159L80.2233 17.1905C79.3875 17.0217 78.7147 16.6713 78.2049 16.1393C77.6948 15.598 77.425 14.9642 77.3956 14.2377C77.3713 13.6399 77.5239 13.0857 77.8532 12.5749C78.1822 12.055 78.6628 11.6394 79.295 11.3282C79.9268 11.0079 80.6657 10.8305 81.5118 10.7963C82.3394 10.7627 83.1129 10.8696 83.8322 11.1167C84.5511 11.3547 85.076 11.6927 85.407 12.1307C85.4747 12.2108 85.5101 12.2877 85.513 12.3613C85.5156 12.4256 85.4859 12.4867 85.4237 12.5445L83.9643 13.6952C83.9198 13.7338 83.87 13.7543 83.8148 13.7565C83.7504 13.7591 83.6608 13.7075 83.546 13.6016Z" fill="#FCFCF2"/>
<rect width="98.5674" height="29.7858" transform="translate(86.1084 12.3984) rotate(-1.0714)" fill="#0AAA93"/>
<path d="M104.713 25.2765C104.725 25.8928 104.585 26.4306 104.294 26.8899C104.011 27.349 103.602 27.7077 103.068 27.966C102.542 28.2156 101.932 28.3469 101.238 28.3599L99.4794 28.3928C99.3767 28.3947 99.3262 28.4427 99.328 28.5369L99.3822 31.4387C99.3848 31.5757 99.3524 31.6748 99.285 31.736C99.2175 31.7886 99.111 31.8163 98.9655 31.819L96.8084 31.8594C96.68 31.8618 96.5896 31.8378 96.5373 31.7874C96.4935 31.7368 96.4706 31.6559 96.4685 31.5446L96.3019 22.6337C96.2982 22.4368 96.3777 22.3368 96.5403 22.3338L100.79 22.2543C101.509 22.2409 102.162 22.3485 102.749 22.5773C103.344 22.7974 103.817 23.1354 104.168 23.5912C104.519 24.047 104.701 24.6088 104.713 25.2765ZM101.733 25.2937C101.728 24.9941 101.621 24.7563 101.412 24.5804C101.203 24.3959 100.949 24.3065 100.649 24.3121L99.5448 24.3327C99.4335 24.3348 99.3568 24.3576 99.3148 24.4012C99.2728 24.4448 99.2527 24.5137 99.2545 24.6079L99.2816 26.0588C99.2835 26.1615 99.302 26.234 99.3371 26.2761C99.3721 26.3183 99.4281 26.3386 99.5052 26.3372L100.763 26.3137C101.063 26.3081 101.301 26.2094 101.477 26.0177C101.653 25.8175 101.739 25.5761 101.733 25.2937Z" fill="#FCFCF2"/>
<path d="M111.12 31.7202C110.187 31.7376 109.366 31.556 108.657 31.1754C107.956 30.786 107.41 30.2311 107.02 29.5105C106.63 28.7814 106.425 27.9247 106.407 26.9403C106.388 25.9559 106.561 25.0921 106.923 24.3489C107.295 23.5969 107.823 23.0133 108.509 22.5981C109.203 22.174 110.013 21.9534 110.937 21.9361C111.853 21.919 112.662 22.1094 113.363 22.5073C114.064 22.8966 114.609 23.4601 115 24.1978C115.399 24.9268 115.607 25.7834 115.626 26.7678C115.644 27.7437 115.472 28.6032 115.109 29.3464C114.746 30.0896 114.222 30.6688 113.536 31.0841C112.85 31.4909 112.045 31.7029 111.12 31.7202ZM111.083 29.7171C111.459 29.7101 111.757 29.6146 111.976 29.4307C112.196 29.2382 112.353 28.9355 112.448 28.5228C112.543 28.11 112.584 27.5569 112.571 26.8635C112.551 25.8021 112.417 25.0425 112.168 24.5847C111.92 24.127 111.522 23.9032 110.974 23.9135C110.418 23.9239 110.02 24.1625 109.78 24.6294C109.549 25.0961 109.444 25.8602 109.463 26.9216C109.476 27.615 109.538 28.1661 109.648 28.5751C109.759 28.9841 109.927 29.2806 110.153 29.4648C110.388 29.6402 110.698 29.7243 111.083 29.7171Z" fill="#FCFCF2"/>
<path d="M117.51 22.2371C117.508 22.1429 117.528 22.0697 117.57 22.0176C117.612 21.9654 117.671 21.9386 117.748 21.9372L120.188 21.8916C120.342 21.8887 120.421 21.9771 120.424 22.1569L120.554 29.129C120.556 29.1974 120.565 29.2444 120.583 29.2697C120.609 29.2949 120.652 29.307 120.712 29.3058L124.577 29.2336C124.774 29.2299 124.874 29.3094 124.877 29.472L124.906 31.0513C124.908 31.1369 124.879 31.206 124.82 31.2584C124.77 31.3108 124.693 31.3379 124.59 31.3398L118.029 31.4625C117.901 31.4649 117.81 31.4409 117.758 31.3905C117.706 31.3401 117.679 31.2593 117.677 31.148L117.51 22.2371Z" fill="#FCFCF2"/>
<path d="M126.659 22.0659C126.658 21.9718 126.678 21.8986 126.719 21.8465C126.761 21.7943 126.821 21.7675 126.898 21.7661L129.337 21.7204C129.491 21.7176 129.57 21.806 129.574 21.9858L129.704 28.9579C129.705 29.0263 129.715 29.0733 129.732 29.0986C129.758 29.1238 129.801 29.1359 129.861 29.1347L133.726 29.0625C133.923 29.0588 134.023 29.1382 134.026 29.3009L134.056 30.8802C134.057 30.9658 134.029 31.0348 133.97 31.0873C133.919 31.1396 133.843 31.1668 133.74 31.1687L127.179 31.2914C127.05 31.2938 126.96 31.2698 126.908 31.2194C126.855 31.169 126.828 31.0882 126.826 30.9769L126.659 22.0659Z" fill="#FCFCF2"/>
<path d="M143.637 27.2202C143.663 28.624 143.327 29.6322 142.628 30.2446C141.928 30.8486 140.919 31.1629 139.601 31.1875C138.12 31.2152 137.057 30.8926 136.411 30.2196C135.773 29.5465 135.441 28.5123 135.415 27.117L135.317 21.904C135.316 21.8099 135.336 21.7367 135.377 21.6845C135.419 21.6324 135.479 21.6056 135.556 21.6041L137.995 21.5585C138.149 21.5556 138.228 21.6441 138.232 21.8238L138.335 27.3707C138.347 28.0041 138.476 28.4599 138.721 28.7379C138.974 29.0157 139.328 29.1504 139.781 29.1419C140.226 29.1336 140.583 28.9856 140.852 28.698C141.121 28.4104 141.249 27.937 141.236 27.2779L141.134 21.7952C141.13 21.5984 141.21 21.4984 141.372 21.4954L143.298 21.4593C143.452 21.4565 143.531 21.5449 143.534 21.7247L143.637 27.2202Z" fill="#FCFCF2"/>
<path d="M145.078 30.9566C145.01 30.9579 144.954 30.9376 144.91 30.8956C144.866 30.845 144.843 30.7769 144.842 30.6913C144.841 30.6314 144.852 30.5627 144.877 30.4852L147.82 21.6702C147.861 21.5581 147.906 21.4802 147.957 21.4364C148.008 21.3927 148.088 21.3698 148.2 21.3677L150.729 21.3204C150.832 21.3185 150.922 21.351 151.001 21.4181C151.087 21.4764 151.153 21.5565 151.198 21.6584L154.443 30.3448C154.461 30.413 154.471 30.4641 154.472 30.4984C154.473 30.5754 154.457 30.6442 154.424 30.7048C154.391 30.7568 154.34 30.7834 154.271 30.7847L151.755 30.8318C151.609 30.8345 151.514 30.7635 151.468 30.6188L150.94 29.1516C150.913 29.0921 150.887 29.0541 150.861 29.0374C150.843 29.0121 150.804 29 150.744 29.0011L148.022 29.052C147.92 29.0539 147.856 29.1022 147.832 29.1968L147.334 30.7218C147.285 30.8511 147.184 30.9173 147.03 30.9201L145.078 30.9566ZM150.062 26.8303C150.156 26.8285 150.202 26.7848 150.2 26.6992C150.2 26.6821 150.191 26.6395 150.172 26.5713L149.361 24.3901C149.343 24.3476 149.317 24.3267 149.283 24.3273C149.248 24.328 149.223 24.3499 149.207 24.393L148.464 26.5904C148.448 26.625 148.44 26.6679 148.441 26.7193C148.443 26.8135 148.495 26.8596 148.598 26.8577L150.062 26.8303Z" fill="#FCFCF2"/>
<path d="M164.414 21.0644C164.543 21.062 164.608 21.1336 164.611 21.2791L164.781 30.357C164.782 30.4254 164.753 30.4816 164.694 30.5256C164.644 30.5693 164.575 30.592 164.49 30.5936L162.731 30.6265C162.654 30.6279 162.589 30.6163 162.537 30.5916C162.494 30.5667 162.442 30.5163 162.38 30.4404L158.76 25.7171C158.725 25.675 158.695 25.6584 158.669 25.6674C158.644 25.6765 158.631 25.7024 158.632 25.7452L158.719 30.4189C158.73 30.5215 158.71 30.5947 158.659 30.6384C158.617 30.682 158.536 30.705 158.417 30.7072L156.67 30.7398C156.456 30.7439 156.348 30.6603 156.345 30.4891L156.177 21.5139C156.173 21.317 156.265 21.2168 156.454 21.2133L158.547 21.1742C158.658 21.1721 158.739 21.1877 158.791 21.221C158.852 21.2455 158.917 21.3043 158.987 21.3971L162.149 25.6281C162.202 25.7041 162.25 25.7418 162.293 25.741C162.335 25.7402 162.356 25.6841 162.354 25.5729L162.275 21.3742C162.272 21.1944 162.364 21.1028 162.553 21.0993L164.414 21.0644Z" fill="#FCFCF2"/>
<path d="M166.535 21.3202C166.534 21.2346 166.558 21.1656 166.608 21.1133C166.667 21.0523 166.748 21.0208 166.851 21.0189L174.529 20.8753C174.632 20.8734 174.709 20.9019 174.762 20.9608C174.823 21.0111 174.854 21.079 174.855 21.1646L174.884 22.6926C174.887 22.8552 174.794 22.9383 174.606 22.9418L172.333 22.9843C172.231 22.9862 172.18 23.03 172.182 23.1156L172.314 30.1647C172.315 30.2589 172.295 30.332 172.254 30.3842C172.212 30.4278 172.152 30.4503 172.075 30.4518L169.635 30.4974C169.481 30.5003 169.403 30.4161 169.399 30.2449L169.268 23.2215C169.266 23.1016 169.218 23.0426 169.123 23.0443L166.864 23.0866C166.667 23.0903 166.567 23.0108 166.564 22.8482L166.535 21.3202Z" fill="#FCFCF2"/>
</svg>
