<svg width="181" height="182" viewBox="0 0 181 182" fill="none" xmlns="http://www.w3.org/2000/svg">
<g clip-path="url(#clip0)">
<path d="M162.116 90.6869C162.116 130.461 129.873 162.704 90.0991 162.704C50.3252 162.704 18.082 130.461 18.082 90.6869C18.082 50.913 50.3252 18.6699 90.0991 18.6699C129.873 18.6699 162.116 50.913 162.116 90.6869Z" fill="#FED13F"/>
<path d="M138.711 90.6877C138.711 117.535 117.148 139.299 90.5496 139.299C63.9508 139.299 42.3882 117.535 42.3882 90.6877C42.3882 63.8403 63.9508 42.0762 90.5496 42.0762C117.148 42.0762 138.711 63.8403 138.711 90.6877Z" fill="#FCFCF2"/>
<path d="M76.8218 114.068C76.8218 116.214 78.1085 116.723 79.6826 115.194L88.371 106.76L76.8218 102.215L76.8218 114.068Z" fill="#FC4E40"/>
<path d="M115.831 68.4238L78.2651 100.677L101.525 109.826C103.597 110.642 105.717 109.601 106.241 107.514L115.747 69.6009C115.858 69.1534 115.875 68.7653 115.831 68.4238Z" fill="#FC4E40"/>
<path d="M112.975 67.3943L59.3721 90.2033C57.3271 91.0728 57.347 92.4535 59.4186 93.2636L76.1809 99.8614L114.353 67.0783C113.957 67.074 113.493 67.1737 112.975 67.3943Z" fill="#FC4E40"/>
<path d="M139.259 51.556C139.12 52.9199 137.902 53.9131 136.538 53.7744C135.175 53.6356 134.182 52.4175 134.321 51.0536C134.459 49.6896 135.677 48.6965 137.041 48.8352C138.405 48.974 139.398 50.1921 139.259 51.556Z" fill="#443737"/>
<path d="M40.1854 103.27L41.0006 106.582L33.02 114.218L33.0386 114.294C34.6543 113.783 35.8124 113.441 36.5129 113.269L42.2959 111.845L42.869 114.173L30.5801 117.199L29.7711 113.912L37.6613 106.308L37.6468 106.249C36.0704 106.726 34.9516 107.046 34.2904 107.209L28.4737 108.641L27.8964 106.296L40.1854 103.27Z" fill="#443737"/>
<path d="M32.7465 83.1715C34.8248 83.435 36.3568 84.1528 37.3425 85.325C38.3283 86.4972 38.6992 88.0453 38.4553 89.9692C38.2114 91.8931 37.466 93.2996 36.2189 94.1888C34.9718 95.0779 33.3035 95.39 31.2138 95.1251C29.1241 94.8602 27.5949 94.1427 26.6264 92.9727C25.6528 91.7962 25.2883 90.2432 25.5329 88.3135C25.7775 86.3839 26.5198 84.9798 27.7597 84.1014C29.0003 83.2173 30.6626 82.9073 32.7465 83.1715ZM31.5848 92.3359C32.9875 92.5137 34.0775 92.3814 34.8549 91.9389C35.6324 91.4963 36.0882 90.7454 36.2225 89.6861C36.4918 87.5618 35.2152 86.3207 32.3927 85.9629C29.5644 85.6044 28.0164 86.4815 27.7486 88.5944C27.6143 89.6537 27.8708 90.4978 28.5183 91.1268C29.16 91.755 30.1821 92.1581 31.5848 92.3359Z" fill="#443737"/>
<path d="M41.2308 57.9879L41.7972 57.3104C42.3265 56.6772 42.5986 56.0997 42.6135 55.578C42.6239 55.0526 42.3901 54.59 41.9119 54.1901C41.4293 53.7866 40.9618 53.6215 40.5095 53.6947C40.0609 53.7634 39.6015 54.079 39.1314 54.6414L38.3485 55.5779L41.2308 57.9879ZM43.5767 52.05C44.6216 52.9237 45.1469 53.9196 45.1525 55.0377C45.1618 56.1514 44.663 57.3105 43.6562 58.5149L42.9177 59.3983L46.3711 62.2859L44.6499 64.345L34.9404 56.2266L37.5334 53.1246C38.518 51.9467 39.5203 51.2651 40.5403 51.0798C41.5596 50.8863 42.5717 51.2097 43.5767 52.05Z" fill="#443737"/>
<path d="M55.2362 51.1908L48.5044 40.4727L50.7768 39.045L56.3299 47.8864L60.6767 45.1554L61.8555 47.0321L55.2362 51.1908Z" fill="#443737"/>
<path d="M76.2978 40.2459L74.6971 37.5336L70.2128 38.6195L70.0298 41.7638L67.2197 42.4443L68.5708 29.0405L71.7595 28.2683L79.1079 39.5654L76.2978 40.2459ZM73.5449 35.4966C72.0781 33.0429 71.2493 31.655 71.0585 31.3331C70.8734 31.0097 70.7339 30.7525 70.6402 30.5614C70.6289 31.3243 70.5286 33.2281 70.3394 36.2729L73.5449 35.4966Z" fill="#443737"/>
<path d="M97.5867 37.9778L94.1762 37.942L88.7715 28.3093L88.6936 28.3085C88.7855 30.0007 88.8276 31.2075 88.8201 31.929L88.7576 37.8851L86.3599 37.8599L86.4927 25.2031L89.8772 25.2387L95.2742 34.776L95.3348 34.7766C95.2655 33.1308 95.2345 31.9674 95.2416 31.2864L95.3045 25.2956L97.7195 25.321L97.5867 37.9778Z" fill="#443737"/>
<path d="M112.125 42.6388L105.575 39.4413L111.126 28.0664L117.677 31.2639L116.712 33.2401L112.574 31.2198L111.355 33.7173L115.205 35.5971L114.241 37.5733L110.39 35.6935L108.959 38.6267L113.097 40.647L112.125 42.6388Z" fill="#443737"/>
<path d="M143.175 86.5215L142.934 83.1189L152.095 76.9495L152.089 76.8718C150.41 77.1007 149.211 77.2407 148.491 77.2917L142.551 77.7128L142.381 75.3206L155.005 74.4258L155.245 77.8024L146.178 83.9565L146.182 84.0169C147.817 83.8143 148.974 83.6889 149.653 83.6407L155.628 83.2172L155.799 85.6266L143.175 86.5215Z" fill="#443737"/>
<path d="M147.096 107.709C145.093 107.094 143.706 106.125 142.935 104.802C142.164 103.478 142.063 101.889 142.632 100.035C143.201 98.1815 144.176 96.923 145.556 96.26C146.937 95.597 148.634 95.5746 150.648 96.1926C152.662 96.8107 154.046 97.7789 154.8 99.0972C155.558 100.423 155.652 102.015 155.082 103.875C154.511 105.734 153.54 106.991 152.168 107.644C150.795 108.304 149.104 108.325 147.096 107.709ZM149.806 98.8775C148.454 98.4626 147.358 98.4068 146.516 98.7099C145.674 99.0131 145.097 99.6751 144.784 100.696C144.156 102.743 145.201 104.184 147.921 105.019C150.647 105.855 152.322 105.255 152.947 103.219C153.26 102.199 153.151 101.323 152.621 100.593C152.096 99.8641 151.158 99.2923 149.806 98.8775Z" fill="#443737"/>
<path d="M134.857 130.762L134.185 131.335C133.557 131.87 133.191 132.394 133.089 132.906C132.991 133.422 133.144 133.917 133.548 134.392C133.956 134.87 134.389 135.112 134.847 135.116C135.301 135.123 135.807 134.889 136.365 134.414L137.294 133.622L134.857 130.762ZM131.547 136.222C130.664 135.185 130.313 134.115 130.496 133.012C130.673 131.913 131.36 130.854 132.554 129.835L133.431 129.088L130.511 125.662L132.553 123.921L140.762 133.555L137.685 136.177C136.517 137.173 135.414 137.677 134.378 137.688C133.341 137.708 132.397 137.219 131.547 136.222Z" fill="#443737"/>
<path d="M112.89 138.188L114.849 140.653L119.141 138.959L118.888 135.82L121.578 134.758L122.088 148.22L119.036 149.425L110.2 139.249L112.89 138.188ZM116.271 142.512C118.062 144.74 119.074 146 119.308 146.293C119.536 146.587 119.709 146.823 119.828 146.999C119.734 146.242 119.571 144.343 119.339 141.301L116.271 142.512Z" fill="#443737"/>
<path d="M102.709 142.137L103.746 154.752L101.071 154.972L100.034 142.357L102.709 142.137Z" fill="#443737"/>
<path d="M79.4859 141.635L82.8078 142.408L86.0005 152.982L86.0763 153C86.3527 151.328 86.5727 150.14 86.7361 149.438L88.0858 143.636L90.4213 144.18L87.5532 156.508L84.2566 155.741L81.0508 145.261L80.9918 145.248C80.7034 146.87 80.482 148.012 80.3277 148.675L78.9702 154.511L76.6179 153.963L79.4859 141.635Z" fill="#443737"/>
<path d="M55.4885 139.275C55.3497 140.639 54.1317 141.632 52.768 141.493C51.4042 141.354 50.4112 140.136 50.55 138.772C50.6888 137.408 51.9068 136.415 53.2705 136.554C54.6342 136.693 55.6273 137.911 55.4885 139.275Z" fill="#443737"/>
</g>
<defs>
<clipPath id="clip0">
<rect width="164.945" height="165.162" fill="white" transform="translate(16.7188) rotate(5.80975)"/>
</clipPath>
</defs>
</svg>
