<svg width="116" height="116" viewBox="0 0 116 116" fill="none" xmlns="http://www.w3.org/2000/svg">
<g clip-path="url(#clip0_4010_5621)">
<path d="M107.263 66.6816C102.45 93.8733 76.5029 112.029 49.3082 107.234C22.1135 102.439 3.96928 76.5084 8.78196 49.3168C13.5946 22.1252 39.5418 3.96928 66.7365 8.76444C93.9312 13.5596 112.075 39.49 107.263 66.6816Z" fill="#FFD483"/>
<path d="M42.9229 30.7228C45.8451 28.9856 46.7401 26.616 45.3188 24.2251C43.9033 21.844 41.3998 21.508 38.4776 23.2451C35.5456 24.9881 34.6487 27.3323 36.07 29.7231C37.4972 32.1239 39.9908 32.4658 42.9229 30.7228ZM41.6946 28.6566C40.0908 29.61 39.1838 29.1371 38.6282 28.2024C38.0784 27.2775 38.0923 26.2706 39.7059 25.3113C41.3195 24.3521 42.2166 24.8308 42.7606 25.7458C43.3104 26.6707 43.2983 27.7032 41.6946 28.6566Z" fill="white"/>
<path d="M26.3268 58.6473L27.6904 48.8984L25.3099 48.5655L24.8263 52.0229L19.0449 51.2143L18.6485 54.0482L24.4299 54.8569L23.9462 58.3144L26.3268 58.6473Z" fill="white"/>
<path d="M22.814 68.7254C23.3345 69.6412 24.1535 70.0353 25.3911 69.8039C27.0901 69.4863 27.8044 68.1999 27.3858 65.9609L26.2078 59.6602L18.1068 61.1748L18.6327 63.9876L20.703 63.6005L21.2878 66.7284C21.4224 67.4485 21.2535 67.6664 20.5334 67.801L19.3858 68.0156L19.9117 70.8284L21.5319 70.5255C22.4995 70.3446 22.9323 69.6698 22.814 68.7254ZM25.0093 65.7065C25.1271 66.3366 25.2155 66.8092 24.4504 66.9522C23.6853 67.0953 23.5969 66.6227 23.4791 65.9926L22.9532 63.1798L24.4834 62.8937L25.0093 65.7065Z" fill="white"/>
<path d="M26.6211 82.9678L31.7167 75.3817L29.6481 71.871L20.543 72.6526L22.0887 75.2758L23.6741 75.1254L25.9752 79.0306L25.0754 80.3446L26.6211 82.9678ZM28.9862 74.6258L27.2621 77.1563L25.9373 74.9079L28.9862 74.6258Z" fill="white"/>
<path d="M33.8723 78.3672L27.9724 84.1214L29.9704 86.1699L35.8703 80.4158L33.8723 78.3672Z" fill="white"/>
<path d="M40.915 90.5351L40.4312 83.8437L36.8225 81.627L32.5089 88.6492L34.9472 90.147L37.799 85.5045L38.2828 92.196L41.8915 94.4127L46.2051 87.3904L43.7668 85.8926L40.915 90.5351Z" fill="white"/>
<path d="M46.9021 92.678L55.92 94.2681L56.2579 92.3518L47.24 90.7617L46.9021 92.678Z" fill="white"/>
<path d="M67.9544 88.3159L58.2009 89.6465L58.5258 92.0281L61.9849 91.5562L62.774 97.3403L65.6093 96.9535L64.8202 91.1694L68.2793 90.6975L67.9544 88.3159Z" fill="white"/>
<path d="M78.6155 88.5108C79.328 87.735 79.4525 86.8347 78.8534 85.7272C78.031 84.2071 76.5877 83.9207 74.5843 85.0046L68.9465 88.0547L72.8681 95.3032L75.3849 93.9416L74.3827 92.0892L77.1815 90.575C77.8258 90.2264 78.0849 90.3205 78.4335 90.9648L78.989 91.9917L81.5059 90.6301L80.7216 89.1804C80.2532 88.3146 79.4783 88.1091 78.6155 88.5108ZM75.0695 87.3449C75.6333 87.0399 76.0562 86.8111 76.4265 87.4957C76.7969 88.1803 76.3741 88.409 75.8103 88.7141L73.2934 90.0757L72.5527 88.7065L75.0695 87.3449Z" fill="white"/>
<path d="M90.6912 81.8028L82.0077 78.9549L79.1893 81.8979L82.4102 90.4501L84.5161 88.2511L83.9415 86.7658L87.0766 83.4921L88.5853 84.0019L90.6912 81.8028ZM82.0204 81.7881L84.9235 82.7615L83.1185 84.6464L82.0204 81.7881Z" fill="white"/>
<path d="M84.2854 76.0195L91.4236 80.1384L92.8538 77.6598L85.7156 73.541L84.2854 76.0195Z" fill="white"/>
<path d="M94.0882 65.9424L87.7786 68.2224L86.6233 72.2969L94.5521 74.545L95.3327 71.7919L90.0909 70.3057L96.4005 68.0258L97.5558 63.9512L89.627 61.7031L88.8464 64.4562L94.0882 65.9424Z" fill="white"/>
<path d="M56.6283 18.4534L53.7961 18.8623L54.3832 22.9293C54.5206 23.8809 54.2437 24.9271 52.5104 25.1773C50.7771 25.4275 50.2173 24.5137 50.0783 23.5508L49.4912 19.4837L46.6589 19.8926L47.2624 24.0729C47.6615 26.8372 49.3646 28.0601 52.8539 27.5563C56.3318 27.0543 57.6292 25.3867 57.2318 22.6338L56.6283 18.4534Z" fill="white"/>
<path d="M59.4539 18.2793L59.1508 26.5151L62.0104 26.6203L62.3135 18.3845L59.4539 18.2793Z" fill="white"/>
<path d="M80.3114 35.8057L81.7656 26.7836L78.4179 24.4604L70.475 28.9797L72.9764 30.7156L74.3535 29.9157L78.0774 32.5L77.8099 34.0699L80.3114 35.8057ZM78.9693 27.2394L78.4621 30.2591L76.318 28.7712L78.9693 27.2394Z" fill="white"/>
<path d="M93.1017 38.629L91.3514 36.3651L88.1005 38.8785C87.3398 39.4666 86.293 39.7407 85.2218 38.3552C84.1506 36.9697 84.6703 36.0325 85.4401 35.4374L88.691 32.924L86.9407 30.6602L83.5992 33.2436C81.3897 34.9519 81.1638 37.0363 83.3201 39.8254C85.4695 42.6055 87.5598 42.9137 89.7602 41.2124L93.1017 38.629Z" fill="white"/>
<path d="M58.172 53.5256C57.635 56.5715 56.0107 58.831 54.5442 58.5724C53.0777 58.3138 52.3242 55.635 52.8613 52.5892C53.3984 49.5434 55.0226 47.2838 56.4891 47.5424C57.9556 47.801 58.7091 50.4798 58.172 53.5256Z" fill="#2D3134"/>
<path d="M65.1168 54.7502C64.5798 57.7961 62.9556 60.0556 61.489 59.797C60.0225 59.5384 59.2691 56.8596 59.8061 53.8138C60.3432 50.768 61.9674 48.5085 63.4339 48.767C64.9004 49.0256 65.6539 51.7044 65.1168 54.7502Z" fill="#2D3134"/>
<path fill-rule="evenodd" clip-rule="evenodd" d="M46.4061 50.9741C46.8574 51.0537 47.159 51.4821 47.0799 51.931C46.3911 55.8374 47.3727 58.9722 49.227 61.2638C51.0948 63.5723 53.8892 65.0738 56.8847 65.6019C59.8802 66.1301 63.0197 65.675 65.5644 64.1446C68.0906 62.6253 70.0851 60.0153 70.7739 56.1089C70.853 55.66 71.283 55.3606 71.7342 55.4402C72.1854 55.5197 72.4871 55.9481 72.4079 56.397C71.6398 60.7538 69.3756 63.7829 66.4243 65.5579C63.4915 67.3217 59.9347 67.8158 56.5981 67.2275C53.2616 66.6392 50.0882 64.9583 47.9355 62.2978C45.7692 59.6205 44.6776 55.9997 45.4458 51.6428C45.5249 51.194 45.9549 50.8946 46.4061 50.9741Z" fill="#2D3134"/>
</g>
<defs>
<clipPath id="clip0_4010_5621">
<rect width="100" height="100" fill="white" transform="translate(17.3647) rotate(10)"/>
</clipPath>
</defs>
</svg>
