<svg width="195" height="205" viewBox="0 0 195 205" fill="none" xmlns="http://www.w3.org/2000/svg">
<path d="M173.296 126.97C163.262 169.832 120.545 196.506 77.8849 186.548C35.2249 176.59 8.77652 133.771 18.8108 90.9088C28.8451 48.0471 71.5622 21.3734 114.222 31.3315C156.882 41.2895 183.331 84.1084 173.296 126.97Z" fill="#002CC7"/>
<path d="M125.415 110.955L120.65 109.894L121.722 105.11C122.018 103.79 121.19 102.481 119.875 102.188L112.729 100.596C111.414 100.303 110.107 101.137 109.812 102.457L108.74 107.24L99.212 105.117L102.962 88.3767C104.277 88.6696 105.584 87.8359 105.88 86.5158C106.175 85.1957 105.348 83.8865 104.033 83.5936L75.4487 77.2254C74.1338 76.9325 72.8266 77.7662 72.5309 79.0863C72.2352 80.4064 73.0624 81.7156 74.3773 82.0085L67.4133 113.098L65.0312 112.568C63.7163 112.275 62.4092 113.109 62.1135 114.429C61.8178 115.749 62.6449 117.058 63.9598 117.351L66.3419 117.882L65.8062 120.273C65.5105 121.593 66.3376 122.902 67.6525 123.195L70.3478 123.796C70.4878 128.151 73.5251 132.036 77.9557 133.023C82.3863 134.01 86.7929 131.783 88.7777 127.902L98.9336 130.164C99.0735 134.519 102.111 138.405 106.54 139.391C110.982 140.381 115.399 138.141 117.376 134.242C117.475 134.276 117.571 134.316 117.676 134.34L120.058 134.87C121.373 135.163 122.68 134.33 122.975 133.009L127.261 113.877C127.557 112.557 126.729 111.248 125.415 110.955ZM79.0271 128.24C76.3961 127.654 74.7427 125.037 75.3344 122.396C75.9261 119.754 78.5389 118.088 81.1699 118.674C83.8008 119.26 85.4542 121.877 84.8626 124.519C84.2709 127.16 81.6581 128.826 79.0271 128.24ZM92.0659 103.525C91.7702 104.846 90.463 105.679 89.1481 105.386L79.6199 103.264C78.305 102.971 77.4779 101.661 77.7736 100.341L79.9163 90.7752C80.2121 89.455 81.5192 88.6214 82.8341 88.9143L92.3623 91.037C93.6772 91.33 94.5043 92.6391 94.2086 93.9592L92.0659 103.525ZM107.612 134.608C104.981 134.022 103.327 131.405 103.919 128.764C104.511 126.123 107.123 124.456 109.754 125.042C112.385 125.628 114.039 128.245 113.447 130.887C112.855 133.528 110.243 135.195 107.612 134.608Z" fill="#FED13F"/>
<path d="M29.5351 110.169L29.5538 107.518L39.8089 107.563L39.8328 104.168L42.0303 104.178L41.9638 113.62L39.7663 113.61L39.7902 110.215L29.5351 110.169Z" fill="#FCFCF2"/>
<path d="M38.2004 123.32L38.4273 124.144C38.6497 124.951 38.9479 125.509 39.322 125.819C39.696 126.128 40.1704 126.202 40.7451 126.041C41.3143 125.882 41.6649 125.57 41.7968 125.108C41.9302 124.65 41.8835 124.01 41.6566 123.186L41.4433 122.411L38.2004 123.32ZM36.1315 123.9L31.5257 125.19L30.8223 122.637L42.8252 119.273L43.7918 122.783C44.2426 124.419 44.2779 125.714 43.8976 126.666C43.5228 127.617 42.7306 128.262 41.521 128.601C40.815 128.799 40.1318 128.78 39.4716 128.545C38.8169 128.309 38.2352 127.877 37.7266 127.251C35.5275 129.819 34.1095 131.488 33.4726 132.258L32.692 129.425L36.5059 125.259L36.1315 123.9Z" fill="#FCFCF2"/>
<path d="M41.2607 146.851L43.2918 144.496L40.8792 140.641L37.8884 141.462L36.3765 139.046L49.3045 136.078L51.02 138.819L42.7726 149.267L41.2607 146.851ZM44.8329 142.774C46.6645 140.626 47.7008 139.411 47.9417 139.131C48.1856 138.856 48.3821 138.644 48.5311 138.496C47.8158 138.726 46.0082 139.234 43.1083 140.018L44.8329 142.774Z" fill="#FCFCF2"/>
<path d="M49.1222 156.217L57.7949 147.221L59.6898 149.062L51.0171 158.059L49.1222 156.217Z" fill="#FCFCF2"/>
<path d="M68.5979 170.013L65.6784 168.359L65.6111 157.448L65.5444 157.41C64.8178 158.919 64.2795 159.983 63.9295 160.604L61.0397 165.731L58.9871 164.569L65.1279 153.674L68.0253 155.315L68.1313 166.141L68.1832 166.17C68.9071 164.712 69.4343 163.69 69.7648 163.104L72.6714 157.947L74.7388 159.119L68.5979 170.013Z" fill="#FCFCF2"/>
<path d="M78.4175 169.519L78.9521 167.447L83.3808 168.589L82.8462 170.66L78.4175 169.519Z" fill="#FCFCF2"/>
<path d="M95.9322 175.654L93.2929 175.581L93.6019 165.287L90.2219 165.194L90.2881 162.988L99.6874 163.248L99.6212 165.454L96.2412 165.36L95.9322 175.654Z" fill="#FCFCF2"/>
<path d="M109.219 167.226L110.045 167.017C110.855 166.813 111.42 166.527 111.738 166.159C112.057 165.79 112.145 165.316 112.001 164.735C111.858 164.16 111.559 163.801 111.102 163.658C110.65 163.513 110.011 163.545 109.184 163.753L108.407 163.949L109.219 167.226ZM109.736 169.316L110.888 173.97L108.325 174.616L105.323 162.488L108.845 161.6C110.487 161.186 111.777 161.181 112.714 161.586C113.65 161.984 114.269 162.795 114.572 164.017C114.748 164.73 114.71 165.415 114.457 166.073C114.203 166.724 113.756 167.298 113.118 167.794C115.612 170.062 117.232 171.524 117.981 172.182L115.137 172.899L111.1 168.972L109.736 169.316Z" fill="#FCFCF2"/>
<path d="M132.773 164.62L130.478 162.536L126.58 164.884L127.325 167.902L124.883 169.373L122.244 156.338L125.015 154.668L135.215 163.149L132.773 164.62ZM128.801 160.956C126.707 159.076 125.524 158.012 125.25 157.765C124.982 157.515 124.776 157.313 124.632 157.161C124.844 157.883 125.305 159.708 126.015 162.634L128.801 160.956Z" fill="#FCFCF2"/>
<path d="M142.214 156.992L133.502 148.08L135.389 146.22L144.101 155.132L142.214 156.992Z" fill="#FCFCF2"/>
<path d="M156.473 137.724L154.753 140.623L143.888 140.474L143.848 140.541C145.332 141.3 146.379 141.861 146.988 142.225L152.02 145.227L150.811 147.265L140.118 140.885L141.825 138.009L152.606 138.116L152.636 138.065C151.203 137.309 150.199 136.76 149.623 136.416L144.562 133.396L145.78 131.344L156.473 137.724Z" fill="#FCFCF2"/>
<path d="M78.0987 52.1469C78.9181 54.0439 79.079 55.7073 78.5813 57.1368C78.0835 58.5664 76.9593 59.6643 75.2086 60.4306C73.4578 61.1969 71.8934 61.2757 70.5154 60.6671C69.1373 60.0586 68.0363 58.8005 67.2124 56.893C66.3884 54.9855 66.2287 53.3248 66.7332 51.9109C67.2406 50.4895 68.3723 49.3945 70.1283 48.6259C71.8842 47.8574 73.4449 47.7771 74.8103 48.385C76.1809 48.9906 77.277 50.2446 78.0987 52.1469ZM69.7593 55.7969C70.3123 57.0773 70.9711 57.9355 71.7356 58.3714C72.5 58.8073 73.3643 58.8144 74.3282 58.3924C76.2613 57.5464 76.6714 55.8351 75.5586 53.2586C74.4435 50.677 72.9246 49.8069 71.0019 50.6484C70.0379 51.0703 69.4521 51.7151 69.2445 52.5827C69.0346 53.4451 69.2062 54.5165 69.7593 55.7969Z" fill="#FCFCF2"/>
<path d="M95.5448 43.1886L96.228 51.2488C96.306 52.169 96.1678 52.9938 95.8135 53.7231C95.4649 54.452 94.9186 55.0352 94.1747 55.4727C93.4309 55.9102 92.5299 56.1756 91.4719 56.2688C89.8763 56.4094 88.6025 56.1096 87.6505 55.3694C86.6981 54.6235 86.1614 53.5377 86.0406 52.112L85.3604 44.0859L87.9829 43.8549L88.6292 51.4805C88.7105 52.4405 88.9626 53.1278 89.3854 53.5427C89.8082 53.9575 90.4637 54.1258 91.352 54.0475C92.212 53.9718 92.8154 53.6926 93.1621 53.2099C93.514 52.7211 93.649 51.9939 93.5672 51.0283L92.9223 43.4197L95.5448 43.1886Z" fill="#FCFCF2"/>
<path d="M103.737 56.4436L105.771 44.1016L108.376 44.5276L106.342 56.8696L103.737 56.4436Z" fill="#FCFCF2"/>
<path d="M126.822 65.6851L127.651 62.685L123.821 60.2482L121.468 62.2791L119.068 60.7522L129.488 52.4997L132.211 54.2324L129.222 67.2121L126.822 65.6851ZM128.308 60.4673C129.046 57.7398 129.463 56.1977 129.561 55.841C129.664 55.4874 129.751 55.2117 129.822 55.0138C129.274 55.53 127.857 56.7672 125.57 58.7254L128.308 60.4673Z" fill="#FCFCF2"/>
<path d="M149.239 70.596L143.064 75.8104C142.359 76.4057 141.608 76.7684 140.811 76.8984C140.017 77.0328 139.229 76.9208 138.447 76.5623C137.664 76.2039 136.932 75.617 136.249 74.8017C135.221 73.5721 134.735 72.3527 134.793 71.1434C134.855 69.9304 135.432 68.8628 136.524 67.9404L142.673 62.748L144.364 64.7689L138.522 69.7022C137.786 70.3232 137.371 70.9271 137.275 71.5139C137.179 72.1007 137.418 72.7363 137.99 73.4208C138.545 74.0836 139.118 74.418 139.71 74.4242C140.31 74.431 140.98 74.1221 141.719 73.4974L147.548 68.5752L149.239 70.596Z" fill="#FCFCF2"/>
</svg>
