<svg width="160" height="161" viewBox="0 0 160 161" fill="none" xmlns="http://www.w3.org/2000/svg">
<path d="M142.744 97.3116C133.359 132.248 97.6589 153.042 63.0061 143.757C28.3532 134.471 7.86965 98.623 17.2548 63.6869C26.6399 28.7509 62.3397 7.95683 96.9926 17.242C131.645 26.5272 152.129 62.3756 142.744 97.3116Z" fill="#FED13F"/>
<path d="M118.559 90.8326C112.792 112.302 90.8527 125.081 69.5572 119.375C48.2617 113.669 35.6737 91.6384 41.4413 70.1689C47.2088 48.6994 69.1477 35.9206 90.4432 41.6268C111.739 47.3329 124.327 69.3631 118.559 90.8326Z" fill="#FCFCF2"/>
<path d="M102.214 82.5836L98.693 81.64L99.6479 78.0927C99.9114 77.1136 99.3365 76.1076 98.3646 75.8472L93.0826 74.4319C92.1108 74.1715 91.1081 74.7547 90.8445 75.7338L89.8896 79.2812L82.847 77.3941L86.1891 64.9783C87.161 65.2387 88.1636 64.6555 88.4272 63.6764C88.6907 62.6973 88.1159 61.6914 87.144 61.4309L66.016 55.7697C65.0441 55.5093 64.0414 56.0926 63.7779 57.0716C63.5143 58.0507 64.0892 59.0567 65.0611 59.3171L58.8543 82.375L57.0936 81.9032C56.1217 81.6428 55.119 82.226 54.8555 83.2051C54.592 84.1842 55.1668 85.1901 56.1387 85.4506L57.8994 85.9223L57.4219 87.696C57.1584 88.6751 57.7333 89.681 58.7052 89.9415L60.6974 90.4753C60.6605 93.74 62.8013 96.7439 66.0762 97.6214C69.351 98.4989 72.7122 96.9692 74.3196 94.1254L81.8263 96.1367C81.7893 99.4014 83.9302 102.405 87.2042 103.283C90.4869 104.162 93.8563 102.623 95.4589 99.7658C95.5313 99.7947 95.6017 99.8279 95.6792 99.8486L97.4399 100.32C98.4117 100.581 99.4144 99.9976 99.678 99.0185L103.498 84.829C103.761 83.8499 103.186 82.844 102.214 82.5836ZM67.0311 94.074C65.0864 93.5529 63.9373 91.5421 64.4646 89.5831C64.992 87.6241 66.9962 86.4582 68.9408 86.9793C70.8855 87.5003 72.0346 89.5111 71.5073 91.4702C70.9799 93.4292 68.9757 94.5951 67.0311 94.074ZM77.565 75.9788C77.3014 76.9579 76.2987 77.5411 75.3269 77.2807L68.2842 75.3936C67.3123 75.1332 66.7374 74.1272 67.001 73.1482L68.9107 66.0534C69.1743 65.0744 70.177 64.4911 71.1489 64.7515L78.1915 66.6386C79.1634 66.899 79.7383 67.905 79.4747 68.8841L77.565 75.9788ZM88.1591 99.7352C86.2144 99.2142 85.0653 97.2034 85.5926 95.2443C86.12 93.2853 88.1242 92.1194 90.0689 92.6405C92.0135 93.1616 93.1626 95.1724 92.6353 97.1314C92.108 99.0904 90.1037 100.256 88.1591 99.7352Z" fill="#FC4E40"/>
<path d="M61.5953 38.3408C66.2249 36.1 67.3644 32.802 65.7275 29.3905C64.0906 25.979 60.8195 24.8345 56.1899 27.0753C51.5451 29.3234 50.3911 32.5911 52.0352 36.0177C53.6794 39.4444 56.9505 40.5889 61.5953 38.3408ZM60.7659 36.6123C57.7703 38.0622 55.4472 37.7667 54.1231 35.0072C52.7991 32.2477 54.0085 30.261 57.0192 28.8038C60.03 27.3465 62.338 27.6494 63.6548 30.3937C64.9716 33.1381 63.7616 35.1624 60.7659 36.6123Z" fill="#002CC7"/>
<path d="M33.4656 77.0871L36.7163 62.9727L34.8516 62.5437L33.4644 68.5669L23.8303 66.3506L23.3502 68.4349L32.9844 70.6513L31.6009 76.6581L33.4656 77.0871Z" fill="#002CC7"/>
<path d="M27.6912 91.2589C28.3092 92.4157 29.348 93.0403 30.9521 92.8815C33.4752 92.6316 34.3195 90.721 34.0536 87.9729L33.2026 79.1758L21.4559 80.339L21.6634 82.4838L25.6235 82.0917L26.3286 89.3807C26.4583 90.7212 26.1867 91.0526 25.0004 91.1701L22.5274 91.415L22.7332 93.5431L25.7242 93.2469C26.9273 93.1278 27.6192 92.4333 27.6912 91.2589ZM32.112 87.6069C32.2303 88.8302 32.3843 90.422 30.3792 90.6206C28.3573 90.8208 28.2033 89.2289 28.085 88.0057L27.495 81.9063L31.522 81.5076L32.112 87.6069Z" fill="#002CC7"/>
<path d="M30.7782 112.307L38.4968 101.017L37.3278 98.5565L23.7348 97.4808L24.7884 99.6986L27.7202 99.916L31.4079 107.678L29.7318 110.104L30.7782 112.307ZM36.3056 100.557L32.6134 105.907L29.8422 100.074L36.3056 100.557Z" fill="#002CC7"/>
<path d="M42.6479 107.997L33.5066 115.5L34.8657 117.167L44.0071 109.664L42.6479 107.997Z" fill="#002CC7"/>
<path d="M50.7756 128.183L48.9922 114.67L46.5261 112.837L39.4878 122.351L41.2127 123.633L47.0296 115.77L48.813 129.284L51.2791 131.117L58.3174 121.603L56.5925 120.321L50.7756 128.183Z" fill="#002CC7"/>
<path d="M59.5375 129.139L72.5072 132.614L72.978 130.857L60.0083 127.382L59.5375 129.139Z" fill="#002CC7"/>
<path d="M90.7353 126.213L76.314 126.925L76.4048 128.842L82.559 128.538L83.028 138.444L85.1577 138.339L84.6886 128.433L90.826 128.13L90.7353 126.213Z" fill="#002CC7"/>
<path d="M105.947 127.267C106.857 126.321 107.134 125.137 106.495 123.654C105.489 121.322 103.419 121.103 100.891 122.203L92.8005 125.723L97.4809 136.581L99.4535 135.723L97.8757 132.062L104.58 129.146C105.812 128.61 106.21 128.767 106.682 129.864L107.668 132.15L109.625 131.298L108.433 128.533C107.954 127.421 107.084 126.974 105.947 127.267ZM101.135 124.17C102.26 123.68 103.724 123.043 104.523 124.897C105.329 126.766 103.865 127.403 102.74 127.892L97.13 130.332L95.5255 126.61L101.135 124.17Z" fill="#002CC7"/>
<path d="M124.342 119.658L111.428 115.285L109.382 117.085L112.012 130.502L113.857 128.88L113.275 125.99L119.731 120.312L122.511 121.269L124.342 119.658ZM111.577 117.527L117.706 119.632L112.855 123.898L111.577 117.527Z" fill="#002CC7"/>
<path d="M116.999 109.297L126.662 116.076L127.896 114.309L118.232 107.53L116.999 109.297Z" fill="#002CC7"/>
<path d="M134.181 95.9426L121.694 101.351L120.599 104.231L131.625 108.431L132.391 106.416L123.278 102.945L135.766 97.5373L136.861 94.6564L125.834 90.4567L125.068 92.4718L134.181 95.9426Z" fill="#002CC7"/>
<path d="M82.6509 22.4191L80.5221 22.5409L80.8549 28.5759C80.9578 30.4419 80.6173 32.8054 75.84 33.0786C71.0795 33.3508 70.4823 31.0578 70.3785 29.175L70.0457 23.14L67.9001 23.2627L68.2348 29.3313C68.4609 33.4331 70.7829 35.2903 75.9457 34.995C81.0917 34.7007 83.2108 32.5728 82.9855 28.4878L82.6509 22.4191Z" fill="#002CC7"/>
<path d="M89.2148 22.7051L87.1829 34.3689L89.2996 34.7363L91.3316 23.0725L89.2148 22.7051Z" fill="#002CC7"/>
<path d="M115.536 50.5159L117.843 37.0313L115.754 35.2886L102.949 40.0163L104.832 41.5869L107.588 40.554L114.178 46.0512L113.666 48.956L115.536 50.5159ZM115.659 37.533L114.535 43.9378L109.583 39.8068L115.659 37.533Z" fill="#002CC7"/>
<path d="M133.336 55.9774L132.185 54.1791L127.111 57.45C125.543 58.4613 123.324 59.3312 120.742 55.2956C118.17 51.2741 119.866 49.6204 121.449 48.5999L126.523 45.3291L125.364 43.5166L120.261 46.8057C116.813 49.0287 116.341 51.973 119.131 56.3343C121.912 60.6814 124.799 61.4805 128.234 59.2665L133.336 55.9774Z" fill="#002CC7"/>
</svg>
