<svg width="1440" height="409" viewBox="0 0 1440 409" fill="none" xmlns="http://www.w3.org/2000/svg">
<path d="M-32 377.799C64.5 377.799 124.5 241.799 325.5 241.799C535.5 241.799 560 449.799 773.5 398.299C987 346.799 904.5 71.2991 1174 48.7991C1389.6 30.7991 1535.17 152.299 1581 215.299" stroke="#FED13F" stroke-width="5" stroke-dasharray="10 10"/>
<path fill-rule="evenodd" clip-rule="evenodd" d="M76 285C75.4477 285 75 285.448 75 286V331.077C75 331.629 75.4477 332.077 76 332.077H79.2308C79.7831 332.077 80.2308 331.629 80.2308 331.077V313.769L109 299.058L80.2308 287.615V286C80.2308 285.448 79.7831 285 79.2308 285H76Z" fill="#0AAA93"/>
<path fill-rule="evenodd" clip-rule="evenodd" d="M1253 0C1252.45 0 1252 0.447716 1252 1V46.0769C1252 46.6292 1252.45 47.0769 1253 47.0769H1256.23C1256.78 47.0769 1257.23 46.6292 1257.23 46.0769V28.7692L1286 14.0577L1257.23 2.61538V1C1257.23 0.447715 1256.78 0 1256.23 0H1253Z" fill="#FED13F"/>
</svg>
