<svg width="225" height="73" viewBox="0 0 225 73" fill="none" xmlns="http://www.w3.org/2000/svg">
<path fill-rule="evenodd" clip-rule="evenodd" d="M11.8684 62.8099C11.0382 57.7196 9.58323 49.9214 7.08865 39.1412C4.57089 28.2609 3.04014 19.2845 2.13816 13.0202C1.68713 9.88785 1.39322 7.4329 1.2117 5.75632C1.12094 4.918 1.05827 4.27423 1.0181 3.83759C0.99802 3.61928 0.983562 3.45274 0.974032 3.33956L0.963344 3.21001L0.960607 3.17561L0.95957 3.16228C0.959544 3.16194 0.959523 3.16166 3.9902 2.81351L0.95957 3.16228C0.855644 1.8064 2.12823 0.55074 3.80203 0.35846C5.4757 0.166195 6.91674 1.10933 7.02086 2.46506C7.02086 2.46513 7.02085 2.46499 7.02086 2.46506L7.02139 2.47193L7.02354 2.49891L7.033 2.61349C7.04168 2.71662 7.05524 2.87296 7.07437 3.08096C7.11264 3.49695 7.1732 4.11951 7.2616 4.93605C7.43841 6.56917 7.7266 8.97797 8.17064 12.0618C9.05878 18.2299 10.57 27.0959 13.0597 37.8548C15.5725 48.7139 17.0446 56.5972 17.8897 61.7785C18.3122 64.3692 18.578 66.2846 18.7387 67.5588C18.819 68.1959 18.8731 68.6727 18.9074 68.9935C18.9246 69.1539 18.9368 69.2753 18.9448 69.3583L18.9539 69.454L18.9563 69.4803L18.9573 69.4916C18.9573 69.492 18.9573 69.4923 15.9363 69.86L18.9573 69.4916C19.0752 70.8458 17.8147 72.1094 16.1419 72.3131C14.4692 72.5167 13.0176 71.5841 12.8994 70.2302M12.8994 70.2302L12.8976 70.211L12.8904 70.1347C12.8836 70.0647 12.8727 69.9561 12.8569 69.8083C12.8254 69.5129 12.7742 69.061 12.6969 68.4484C12.5424 67.2231 12.2835 65.3551 11.8684 62.8099" fill="#FCFCF2"/>
<path d="M4.2793 5.33363C4.2793 5.33363 21.4347 1.03151 30.7923 1.71076C40.1498 2.39 50.0744 4.62414 67.9995 5.33363C79.0592 5.77138 93.0153 0.330387 106.681 0.732161C118.134 1.06888 135.827 4.82739 147.632 5.33363C162.712 5.9803 155.809 2.55821 174.278 1.71082C192.747 0.863444 226.794 14.9767 224.926 16.3748C209.732 17.7807 206.629 16.2927 200.448 21.0764C207.791 26.2076 213.897 28.1163 222.377 32.7311C222.377 32.7311 216.401 32.0932 189.424 32.7311C170.119 33.1876 158.902 39.8 145.98 39.8C133.058 39.8 124.174 38.5232 106.681 39.8C96.1684 40.5673 79.8802 44.6506 67.9995 45.0194C56.3611 45.3806 50.9318 42.3672 38.5281 42.9784C19.019 43.9398 10.4004 46.8004 10.4004 46.8004L4.2793 5.33363Z" fill="#FCFCF2"/>
<path d="M184.223 25.3849C184.223 25.6983 184.159 25.9749 184.032 26.2146C183.869 26.528 183.651 26.6848 183.379 26.6848C183.307 26.6848 183.198 26.6755 183.053 26.6571C182.926 26.6202 182.826 26.6018 182.753 26.6018C181.973 26.6018 180.839 26.8415 179.351 27.3209C177.882 27.8003 176.757 28.04 175.977 28.04C173.056 28.04 171.595 25.7905 171.595 21.2915C171.595 17.7513 171.686 14.9487 171.867 12.8836C171.886 12.607 171.895 12.4595 171.895 12.4411C171.895 12.312 171.876 12.1276 171.84 11.8879C171.804 11.6298 171.786 11.4454 171.786 11.3348C171.786 10.4866 172.239 9.98875 173.146 9.84124C174.543 9.5831 175.94 9.31574 177.337 9.03917C179.17 8.68884 180.54 8.51367 181.447 8.51367C181.973 8.51367 182.436 8.60586 182.835 8.79025C183.379 9.04839 183.651 9.40794 183.651 9.8689C183.651 10.5511 183.207 10.8922 182.318 10.8922C182.209 10.8922 182.037 10.883 181.801 10.8646C181.583 10.8277 181.42 10.8093 181.311 10.8093C179.841 10.8093 177.836 11.1412 175.296 11.8049C175.151 11.8234 175.015 11.851 174.888 11.8879C174.761 11.9248 174.67 12.0631 174.616 12.3028C174.416 13.1878 174.317 14.921 174.317 17.5024C174.317 17.8896 174.489 18.0832 174.834 18.0832C175.305 18.0832 175.986 17.9634 176.875 17.7237C177.764 17.484 178.444 17.3641 178.916 17.3641C179.442 17.3641 180.05 17.5301 180.739 17.862C180.921 18.452 181.011 18.8115 181.011 18.9406C181.011 19.4016 180.875 19.6505 180.603 19.6874C180.331 19.7242 180.041 19.7611 179.732 19.798C179.587 19.7058 179.388 19.6597 179.134 19.6597C178.499 19.6597 177.737 19.7427 176.848 19.9086C176.104 20.0746 175.351 20.2313 174.589 20.3788C174.48 20.3973 174.38 20.4157 174.289 20.4341C174.217 20.4526 174.162 20.5632 174.126 20.766C174.09 21.0979 174.072 21.3653 174.072 21.5681C174.072 22.9879 174.099 23.836 174.153 24.1126C174.335 25.182 174.834 25.7167 175.65 25.7167C176.34 25.7167 177.347 25.5047 178.671 25.0806C179.995 24.6381 181.048 24.4168 181.828 24.4168C183.062 24.4168 183.86 24.7395 184.223 25.3849Z" fill="#0AAA93"/>
<path d="M147.191 25.6449C147.191 26.53 146.8 26.9817 146.02 27.0001C146.111 27.4242 146.311 27.9958 146.619 28.7149C146.601 29.1206 146.438 29.4525 146.129 29.7106C145.821 29.9687 145.458 30.0978 145.041 30.0978C144.714 30.0978 144.333 29.9964 143.898 29.7936C143.662 29.3142 143.544 28.7426 143.544 28.0788C143.544 27.9128 143.553 27.6732 143.571 27.3597C143.589 27.0462 143.598 26.8158 143.598 26.6683C143.598 26.7973 143.299 26.8619 142.7 26.8619C141.684 26.8619 140.478 26.908 139.081 27.0001C137.085 27.1108 135.996 27.2675 135.815 27.4703C135.652 27.6732 135.543 28.6596 135.488 30.4297C135.252 30.78 134.953 30.9552 134.59 30.9552C134.209 30.9552 133.819 30.7985 133.42 30.485C133.021 30.1531 132.821 29.8028 132.821 29.434C132.821 29.305 132.985 28.7887 133.311 27.8852C133.674 26.5761 134.264 24.6124 135.08 21.9941C137.511 15.2272 139.534 11.8438 141.149 11.8438C142.727 11.8438 143.943 13.6323 144.796 17.2093C145.177 18.8135 145.53 21.275 145.857 24.5939C146.329 24.7046 146.628 24.7968 146.755 24.8705C147.045 25.0365 147.191 25.2946 147.191 25.6449ZM143.381 24.5939C142.582 18.1589 141.866 14.9414 141.231 14.9414C140.723 14.9414 139.834 16.4534 138.564 19.4773C137.656 21.653 136.94 23.5429 136.414 25.1471C136.994 25.018 137.856 24.8613 138.999 24.6769C140.033 24.5478 141.494 24.5202 143.381 24.5939Z" fill="#0AAA93"/>
<path d="M95.2385 16.8669C95.2385 18.3789 95.0027 20.4071 94.531 22.9516C94.1862 24.7401 93.5422 26.9343 92.5987 29.5341C91.3469 32.9268 90.2674 34.6231 89.3602 34.6231C88.4531 34.6231 87.7455 34.4848 87.2375 34.2083C86.1308 33.5998 85.1692 31.2212 84.3527 27.0726C83.8992 24.2699 83.4365 21.4673 82.9648 18.6647C82.9285 18.4618 82.8469 18.176 82.7199 17.8073C82.6292 17.7151 82.5384 17.6137 82.4477 17.503C82.3752 17.3924 82.3389 17.2541 82.3389 17.0882C82.3389 16.7194 82.5657 16.3875 83.0192 16.0925C83.4184 15.8159 83.8175 15.6776 84.2167 15.6776C84.6702 15.6776 85.0785 15.8528 85.4413 16.2031C85.8042 16.535 85.9856 16.9314 85.9856 17.3924C85.9856 17.7243 85.9584 18.2314 85.904 18.9136C85.8677 19.5958 85.8495 20.1029 85.8495 20.4347C85.8495 21.9467 86.0763 23.7629 86.5299 25.8833C87.3645 29.8291 88.0448 31.8021 88.571 31.8021C88.9157 31.8021 89.2513 31.5163 89.5779 30.9447C90.4306 29.488 91.2017 27.2754 91.8912 24.3068C92.5624 21.4673 92.8981 19.1256 92.8981 17.2818C92.8981 16.8577 92.762 16.5442 92.4899 16.3414C92.2359 16.1202 92.1089 15.9911 92.1089 15.9542C92.1089 15.7514 92.3357 15.484 92.7892 15.1521C93.2428 14.8202 93.5784 14.6543 93.7962 14.6543C94.1772 14.6543 94.5128 14.9217 94.8031 15.4564C95.0934 15.9726 95.2385 16.4428 95.2385 16.8669Z" fill="#0AAA93"/>
<path d="M49.998 21.9833C49.998 24.6384 49.3539 26.8879 48.0658 28.7318C46.6325 30.8153 44.664 31.8571 42.1602 31.8571C41.4526 31.8571 40.6906 31.7188 39.8742 31.4422C38.0599 30.8522 36.7627 29.8289 35.9825 28.3722C35.3112 27.1184 34.9756 25.4405 34.9756 23.3385C34.9756 20.6096 35.6197 18.2034 36.9078 16.1199C38.3955 13.6676 40.4094 12.4414 42.9494 12.4414C45.181 12.4414 46.959 13.5016 48.2835 15.622C49.4265 17.4474 49.998 19.5679 49.998 21.9833ZM47.3854 21.7344C47.3854 17.8992 46.1698 15.6036 43.7387 14.8476C43.4847 14.7739 43.1944 14.737 42.8678 14.737C41.8518 14.737 40.8358 15.198 39.8198 16.1199C38.205 17.6134 37.3977 20.2777 37.3977 24.1129C37.3977 24.4633 37.4703 24.9519 37.6154 25.5788C37.9238 26.9986 38.3865 28.0219 39.0033 28.6488C39.7109 29.3863 40.7451 29.7551 42.1058 29.7551C43.9564 29.7551 45.3534 28.8424 46.2968 27.017C47.0225 25.5788 47.3854 23.8179 47.3854 21.7344Z" fill="#0AAA93"/>
<path d="M30.4775 29.5918C30.4936 30.2 30.3635 30.7661 30.087 31.2902C28.8414 33.5931 26.6226 34.7884 23.4305 34.8759C22.5963 34.8988 21.6319 34.8054 20.5373 34.5956C20.353 35.1724 20.025 35.4673 19.5535 35.4803C18.6829 35.5042 18.2379 35.1475 18.2183 34.4102C18.2173 34.3733 18.2156 34.3088 18.2132 34.2167C18.2107 34.1245 18.209 34.06 18.208 34.0231C18.2036 33.8572 18.1737 33.7566 18.1183 33.7212C17.8796 33.6171 17.6497 33.5035 17.4287 33.3805C17.2076 33.2574 17.0927 33.03 17.0839 32.6982C17.0687 32.1269 17.3322 31.7968 17.8743 31.7082L17.8728 31.6529C17.8635 31.3027 17.8582 30.7587 17.8567 30.0209C17.8567 29.3385 17.8511 28.7853 17.8399 28.3613L17.8347 28.1678C17.4475 27.9386 17.2497 27.6674 17.2414 27.354C17.2321 27.0038 17.3963 26.695 17.7341 26.4275L17.5094 17.9673C17.5015 17.6724 17.6479 17.3733 17.9484 17.0699C18.2665 16.7476 18.5707 16.5825 18.8608 16.5745C19.2598 16.5636 19.5334 16.6114 19.6814 16.718C19.8681 16.9158 20.0549 17.1136 20.2416 17.3114L20.057 18.5615C21.2629 16.813 22.8271 15.9124 24.7496 15.8597C26.273 15.8179 27.485 16.3472 28.3854 17.4477C29.2103 18.4395 29.6438 19.728 29.6859 21.3131C29.7099 22.2163 29.5437 23.1339 29.1873 24.0659C28.8324 25.0533 28.3451 25.8413 27.7255 26.4301C29.5181 26.9527 30.4354 28.0066 30.4775 29.5918ZM27.2073 21.2705C27.1471 19.0034 26.31 17.8919 24.6958 17.9362C23.5351 17.9681 22.4768 18.781 21.5209 20.3751C20.6336 21.8197 20.2064 23.1594 20.2392 24.3944L20.2862 26.1638L21.7552 26.1235C23.6595 26.0713 25.0122 25.7483 25.8131 25.1545C26.7916 24.4083 27.2563 23.1136 27.2073 21.2705ZM27.9974 29.4938C27.9784 28.7749 27.0863 28.3291 25.3211 28.1561C24.5937 28.1023 23.3957 28.0983 21.7272 28.144C21.1287 28.1605 20.6395 28.1923 20.2596 28.2396C20.2542 28.7193 20.2569 29.162 20.2677 29.5675L20.3132 31.2816C20.3235 31.6687 20.3413 32.0002 20.3668 32.2762C21.2653 32.6204 22.2495 32.7779 23.3196 32.7485C24.299 32.7217 25.2891 32.4178 26.2901 31.837C27.4523 31.178 28.0214 30.3969 27.9974 29.4938Z" fill="#0AAA93"/>
<path d="M164.714 23.7561C164.714 25.3603 164.024 26.7893 162.645 28.0431C161.267 29.2969 159.779 29.9238 158.182 29.9238C155.878 29.9238 154.173 29.0111 153.066 27.1857C152.177 25.6922 151.732 23.6916 151.732 21.184C151.732 18.6395 152.268 16.3347 153.338 14.2696C154.626 11.7435 156.404 10.4805 158.672 10.4805C159.797 10.4805 160.777 10.7478 161.611 11.2825C162.537 11.891 163.108 12.7207 163.326 13.7717C163.507 14.6383 163.598 15.0532 163.598 15.0163C163.598 17.4502 163.054 18.6671 161.965 18.6671C161.639 18.6671 161.339 18.5565 161.067 18.3352C160.795 18.114 160.659 17.8374 160.659 17.5055C160.659 17.3211 160.749 17.0538 160.931 16.7034C161.131 16.3531 161.23 16.0765 161.23 15.8737C161.23 14.8227 161.103 14.1036 160.849 13.7164C160.523 13.1817 159.879 12.9143 158.917 12.9143C157.937 12.9143 157.03 13.532 156.196 14.7674C155.506 15.8 155.053 16.8786 154.835 18.0034C154.617 19.2019 154.508 20.3082 154.508 21.3223C154.508 23.0555 154.644 24.3093 154.917 25.0837C155.352 26.3375 156.232 27.158 157.556 27.5452C157.955 27.6559 158.282 27.7112 158.536 27.7112C159.189 27.7112 159.879 27.4346 160.604 26.8815C161.239 26.3652 161.729 25.7844 162.074 25.139C162.274 24.7518 162.391 24.2632 162.428 23.6732L162.319 23.5902C161.031 23.5902 160.033 23.7469 159.325 24.0604C159.108 24.171 158.89 24.2909 158.672 24.4199C158.382 24.549 158.155 24.6135 157.992 24.6135C157.538 24.6135 157.184 24.4199 156.93 24.0327C156.676 23.6455 156.549 23.2122 156.549 22.7328C156.549 22.3272 156.758 21.9953 157.175 21.7371C157.447 21.5896 158.3 21.4145 159.733 21.2116C161.04 21.0457 161.956 20.9627 162.482 20.9627C163.97 20.9627 164.714 21.8939 164.714 23.7561Z" fill="#0AAA93"/>
<path d="M132.591 13.6751C132.391 14.0254 132.038 14.4956 131.53 15.0856C131.04 15.6572 130.704 16.0997 130.523 16.4132C130.359 16.7266 129.271 19.5754 127.257 24.9594C125.551 29.5506 124.417 31.8462 123.855 31.8462C123.365 31.8462 122.939 31.7079 122.576 31.4313C122.159 31.1363 121.95 30.7491 121.95 30.2697C121.95 29.9747 122.113 29.6059 122.44 29.1634C122.766 28.7208 123.129 27.9372 123.528 26.8125C123.819 25.9643 124.109 25.1161 124.399 24.268C123.311 23.3829 122.349 22.0277 121.515 20.2023C120.063 17.0862 119.337 14.892 119.337 13.6198C119.337 12.5503 119.809 12.0156 120.753 12.0156C121.841 12.0156 122.385 12.6518 122.385 13.924C122.385 14.0531 122.358 14.2559 122.304 14.5325C122.268 14.7906 122.249 14.9934 122.249 15.1409C122.249 15.9154 122.603 17.1323 123.311 18.7918C124.055 20.5434 124.726 21.5483 125.325 21.8064C125.56 21.4561 126.078 20.3959 126.876 18.6258C127.747 16.6713 128.427 15.27 128.917 14.4218C129.733 13.039 130.414 12.3475 130.958 12.3475C131.357 12.3475 131.711 12.4766 132.019 12.7347C132.346 12.9744 132.536 13.2879 132.591 13.6751Z" fill="#0AAA93"/>
<path d="M114.418 19.5087C114.418 22.1638 113.774 24.4133 112.486 26.2572C111.052 28.3407 109.084 29.3825 106.58 29.3825C105.873 29.3825 105.111 29.2442 104.294 28.9676C102.48 28.3776 101.183 27.3543 100.402 25.8976C99.7312 24.6438 99.3955 22.9659 99.3955 20.8639C99.3955 18.135 100.04 15.7288 101.328 13.6453C102.815 11.193 104.829 9.9668 107.369 9.9668C109.601 9.9668 111.379 11.027 112.703 13.1474C113.846 14.9728 114.418 17.0933 114.418 19.5087ZM111.805 19.2598C111.805 15.4246 110.59 13.129 108.159 12.373C107.905 12.2993 107.614 12.2624 107.288 12.2624C106.272 12.2624 105.256 12.7233 104.24 13.6453C102.625 15.1388 101.818 17.8031 101.818 21.6383C101.818 21.9887 101.89 22.4773 102.035 23.1042C102.344 24.524 102.806 25.5473 103.423 26.1742C104.131 26.9117 105.165 27.2805 106.526 27.2805C108.376 27.2805 109.773 26.3678 110.717 24.5424C111.442 23.1042 111.805 21.3433 111.805 19.2598Z" fill="#0AAA93"/>
<path d="M67.8602 16.4167C67.8602 16.6195 67.7786 16.8776 67.6153 17.1911C67.4157 17.5967 67.2978 17.8457 67.2615 17.9378C66.7353 19.6157 66.4723 20.9894 66.4723 22.0588L66.3906 29.9966C66.3725 30.8079 66.1911 31.6376 65.8463 32.4858C65.3928 33.5552 64.8303 34.0899 64.159 34.0899C63.1612 34.0899 62.1724 33.2418 61.1927 31.5454C60.4851 30.2916 59.7684 28.5584 59.0427 26.3458C58.6254 24.9076 58.1991 23.4694 57.7636 22.0312C57.3826 25.1657 57.1921 27.2677 57.1921 28.3371C57.1921 30.6973 57.3282 32.0525 57.6003 32.4028C57.8906 32.7531 58.0358 33.0113 58.0358 33.1772C58.0358 33.5276 57.8543 33.841 57.4915 34.1176C57.1286 34.3757 56.7658 34.5048 56.4029 34.5048C55.8949 34.5048 55.4776 33.9609 55.151 32.873C54.897 32.0248 54.77 31.2504 54.77 30.5497C54.77 30.2363 54.7791 29.7753 54.7972 29.1669C54.8154 28.54 54.8244 28.0698 54.8244 27.7563C54.8244 27.0003 54.9152 25.8756 55.0966 24.3821C55.278 22.8886 55.3687 21.7638 55.3687 21.0079V17.6336C55.3687 17.5967 55.3506 17.5414 55.3143 17.4677C55.2962 17.3939 55.2871 17.3386 55.2871 17.3017C55.2871 16.933 55.532 16.6287 56.0219 16.389C56.421 16.1862 56.8202 16.0848 57.2193 16.0848C58.1446 16.0848 58.8068 16.389 59.206 16.9975C59.3148 17.2003 59.4146 17.6244 59.5054 18.2697C59.5598 18.7123 59.6142 19.164 59.6686 19.625C59.8864 20.9341 60.4579 23.0361 61.3832 25.9309C62.4899 29.342 63.3154 31.0476 63.8597 31.0476C64.0592 31.0476 64.159 30.7894 64.159 30.2732C64.159 30.1257 64.1318 29.886 64.0774 29.5541C64.0411 29.2222 64.023 28.964 64.023 28.7797L64.2951 21.2844C64.3495 20.1597 64.54 19.0534 64.8666 17.9655C65.3383 16.4351 65.9733 15.6699 66.7716 15.6699C67.0256 15.6699 67.3794 15.8359 67.833 16.1678C67.8511 16.26 67.8602 16.3429 67.8602 16.4167Z" fill="#0AAA93"/>
</svg>
